%TF.GenerationSoftware,KiCad,Pcbnew,7.0.9-1.fc39*%
%TF.CreationDate,2023-11-14T16:17:19+02:00*%
%TF.ProjectId,CAN_transceiver_module,43414e5f-7472-4616-9e73-636569766572,v1.0*%
%TF.SameCoordinates,Original*%
%TF.FileFunction,Drillmap*%
%TF.FilePolarity,Positive*%
%FSLAX45Y45*%
G04 Gerber Fmt 4.5, Leading zero omitted, Abs format (unit mm)*
G04 Created by KiCad (PCBNEW 7.0.9-1.fc39) date 2023-11-14 16:17:19*
%MOMM*%
%LPD*%
G01*
G04 APERTURE LIST*
%ADD10C,0.100000*%
%ADD11C,0.200000*%
G04 APERTURE END LIST*
D10*
X9900000Y-8700000D02*
G75*
G03*
X9700000Y-8900000I0J-200000D01*
G01*
X16000000Y-8900000D02*
G75*
G03*
X15800000Y-8700000I-200000J0D01*
G01*
X9900000Y-8700000D02*
X15800000Y-8700000D01*
X9700000Y-11200000D02*
G75*
G03*
X9900000Y-11400000I200000J0D01*
G01*
X9700000Y-11200000D02*
X9700000Y-8900000D01*
X15800000Y-11400000D02*
G75*
G03*
X16000000Y-11200000I0J200000D01*
G01*
X16000000Y-8900000D02*
X16000000Y-11200000D01*
X15800000Y-11400000D02*
X9900000Y-11400000D01*
D11*
D10*
X13940000Y-9980000D02*
X13980000Y-10020000D01*
X13980000Y-9980000D02*
X13940000Y-10020000D01*
X14880000Y-9890000D02*
X14920000Y-9930000D01*
X14920000Y-9890000D02*
X14880000Y-9930000D01*
X14880000Y-10080000D02*
X14920000Y-10120000D01*
X14920000Y-10080000D02*
X14880000Y-10120000D01*
X15120000Y-9570000D02*
X15160000Y-9610000D01*
X15160000Y-9570000D02*
X15120000Y-9610000D01*
X15120000Y-10360000D02*
X15160000Y-10400000D01*
X15160000Y-10360000D02*
X15120000Y-10400000D01*
X15562500Y-9160000D02*
G75*
G03*
X15562500Y-9160000I-37500J0D01*
G01*
X15562500Y-9360000D02*
G75*
G03*
X15562500Y-9360000I-37500J0D01*
G01*
X15562500Y-9560000D02*
G75*
G03*
X15562500Y-9560000I-37500J0D01*
G01*
X15567500Y-10450000D02*
G75*
G03*
X15567500Y-10450000I-37500J0D01*
G01*
X15567500Y-10650000D02*
G75*
G03*
X15567500Y-10650000I-37500J0D01*
G01*
X15567500Y-10850000D02*
G75*
G03*
X15567500Y-10850000I-37500J0D01*
G01*
X10140000Y-9538000D02*
X10140000Y-9638000D01*
X10090000Y-9588000D02*
X10190000Y-9588000D01*
X10140000Y-9792000D02*
X10140000Y-9892000D01*
X10090000Y-9842000D02*
X10190000Y-9842000D01*
X10140000Y-10046000D02*
X10140000Y-10146000D01*
X10090000Y-10096000D02*
X10190000Y-10096000D01*
X10140000Y-10300000D02*
X10140000Y-10400000D01*
X10090000Y-10350000D02*
X10190000Y-10350000D01*
X12562500Y-9660000D02*
X12562500Y-9760000D01*
X12512500Y-9710000D02*
X12612500Y-9710000D01*
X12563500Y-10240000D02*
X12563500Y-10340000D01*
X12513500Y-10290000D02*
X12613500Y-10290000D01*
X12816500Y-9660000D02*
X12816500Y-9760000D01*
X12766500Y-9710000D02*
X12866500Y-9710000D01*
X12817500Y-10240000D02*
X12817500Y-10340000D01*
X12767500Y-10290000D02*
X12867500Y-10290000D01*
D11*
X9955777Y-11716484D02*
X9955777Y-11516484D01*
X9955777Y-11516484D02*
X10003396Y-11516484D01*
X10003396Y-11516484D02*
X10031967Y-11526008D01*
X10031967Y-11526008D02*
X10051015Y-11545055D01*
X10051015Y-11545055D02*
X10060539Y-11564103D01*
X10060539Y-11564103D02*
X10070063Y-11602198D01*
X10070063Y-11602198D02*
X10070063Y-11630769D01*
X10070063Y-11630769D02*
X10060539Y-11668865D01*
X10060539Y-11668865D02*
X10051015Y-11687912D01*
X10051015Y-11687912D02*
X10031967Y-11706960D01*
X10031967Y-11706960D02*
X10003396Y-11716484D01*
X10003396Y-11716484D02*
X9955777Y-11716484D01*
X10155777Y-11716484D02*
X10155777Y-11583150D01*
X10155777Y-11621246D02*
X10165301Y-11602198D01*
X10165301Y-11602198D02*
X10174824Y-11592674D01*
X10174824Y-11592674D02*
X10193872Y-11583150D01*
X10193872Y-11583150D02*
X10212920Y-11583150D01*
X10279586Y-11716484D02*
X10279586Y-11583150D01*
X10279586Y-11516484D02*
X10270063Y-11526008D01*
X10270063Y-11526008D02*
X10279586Y-11535531D01*
X10279586Y-11535531D02*
X10289110Y-11526008D01*
X10289110Y-11526008D02*
X10279586Y-11516484D01*
X10279586Y-11516484D02*
X10279586Y-11535531D01*
X10403396Y-11716484D02*
X10384348Y-11706960D01*
X10384348Y-11706960D02*
X10374824Y-11687912D01*
X10374824Y-11687912D02*
X10374824Y-11516484D01*
X10508158Y-11716484D02*
X10489110Y-11706960D01*
X10489110Y-11706960D02*
X10479586Y-11687912D01*
X10479586Y-11687912D02*
X10479586Y-11516484D01*
X10736729Y-11716484D02*
X10736729Y-11516484D01*
X10736729Y-11516484D02*
X10803396Y-11659341D01*
X10803396Y-11659341D02*
X10870063Y-11516484D01*
X10870063Y-11516484D02*
X10870063Y-11716484D01*
X11051015Y-11716484D02*
X11051015Y-11611722D01*
X11051015Y-11611722D02*
X11041491Y-11592674D01*
X11041491Y-11592674D02*
X11022444Y-11583150D01*
X11022444Y-11583150D02*
X10984348Y-11583150D01*
X10984348Y-11583150D02*
X10965301Y-11592674D01*
X11051015Y-11706960D02*
X11031967Y-11716484D01*
X11031967Y-11716484D02*
X10984348Y-11716484D01*
X10984348Y-11716484D02*
X10965301Y-11706960D01*
X10965301Y-11706960D02*
X10955777Y-11687912D01*
X10955777Y-11687912D02*
X10955777Y-11668865D01*
X10955777Y-11668865D02*
X10965301Y-11649817D01*
X10965301Y-11649817D02*
X10984348Y-11640293D01*
X10984348Y-11640293D02*
X11031967Y-11640293D01*
X11031967Y-11640293D02*
X11051015Y-11630769D01*
X11146253Y-11583150D02*
X11146253Y-11783150D01*
X11146253Y-11592674D02*
X11165301Y-11583150D01*
X11165301Y-11583150D02*
X11203396Y-11583150D01*
X11203396Y-11583150D02*
X11222443Y-11592674D01*
X11222443Y-11592674D02*
X11231967Y-11602198D01*
X11231967Y-11602198D02*
X11241491Y-11621246D01*
X11241491Y-11621246D02*
X11241491Y-11678388D01*
X11241491Y-11678388D02*
X11231967Y-11697436D01*
X11231967Y-11697436D02*
X11222443Y-11706960D01*
X11222443Y-11706960D02*
X11203396Y-11716484D01*
X11203396Y-11716484D02*
X11165301Y-11716484D01*
X11165301Y-11716484D02*
X11146253Y-11706960D01*
X11327205Y-11697436D02*
X11336729Y-11706960D01*
X11336729Y-11706960D02*
X11327205Y-11716484D01*
X11327205Y-11716484D02*
X11317682Y-11706960D01*
X11317682Y-11706960D02*
X11327205Y-11697436D01*
X11327205Y-11697436D02*
X11327205Y-11716484D01*
X11327205Y-11592674D02*
X11336729Y-11602198D01*
X11336729Y-11602198D02*
X11327205Y-11611722D01*
X11327205Y-11611722D02*
X11317682Y-11602198D01*
X11317682Y-11602198D02*
X11327205Y-11592674D01*
X11327205Y-11592674D02*
X11327205Y-11611722D01*
D10*
X9655000Y-12025000D02*
X9695000Y-12065000D01*
X9695000Y-12025000D02*
X9655000Y-12065000D01*
D11*
X9993872Y-11936484D02*
X10012920Y-11936484D01*
X10012920Y-11936484D02*
X10031967Y-11946008D01*
X10031967Y-11946008D02*
X10041491Y-11955531D01*
X10041491Y-11955531D02*
X10051015Y-11974579D01*
X10051015Y-11974579D02*
X10060539Y-12012674D01*
X10060539Y-12012674D02*
X10060539Y-12060293D01*
X10060539Y-12060293D02*
X10051015Y-12098388D01*
X10051015Y-12098388D02*
X10041491Y-12117436D01*
X10041491Y-12117436D02*
X10031967Y-12126960D01*
X10031967Y-12126960D02*
X10012920Y-12136484D01*
X10012920Y-12136484D02*
X9993872Y-12136484D01*
X9993872Y-12136484D02*
X9974824Y-12126960D01*
X9974824Y-12126960D02*
X9965301Y-12117436D01*
X9965301Y-12117436D02*
X9955777Y-12098388D01*
X9955777Y-12098388D02*
X9946253Y-12060293D01*
X9946253Y-12060293D02*
X9946253Y-12012674D01*
X9946253Y-12012674D02*
X9955777Y-11974579D01*
X9955777Y-11974579D02*
X9965301Y-11955531D01*
X9965301Y-11955531D02*
X9974824Y-11946008D01*
X9974824Y-11946008D02*
X9993872Y-11936484D01*
X10146253Y-12117436D02*
X10155777Y-12126960D01*
X10155777Y-12126960D02*
X10146253Y-12136484D01*
X10146253Y-12136484D02*
X10136729Y-12126960D01*
X10136729Y-12126960D02*
X10146253Y-12117436D01*
X10146253Y-12117436D02*
X10146253Y-12136484D01*
X10327205Y-12003150D02*
X10327205Y-12136484D01*
X10279586Y-11926960D02*
X10231967Y-12069817D01*
X10231967Y-12069817D02*
X10355777Y-12069817D01*
X10470063Y-11936484D02*
X10489110Y-11936484D01*
X10489110Y-11936484D02*
X10508158Y-11946008D01*
X10508158Y-11946008D02*
X10517682Y-11955531D01*
X10517682Y-11955531D02*
X10527205Y-11974579D01*
X10527205Y-11974579D02*
X10536729Y-12012674D01*
X10536729Y-12012674D02*
X10536729Y-12060293D01*
X10536729Y-12060293D02*
X10527205Y-12098388D01*
X10527205Y-12098388D02*
X10517682Y-12117436D01*
X10517682Y-12117436D02*
X10508158Y-12126960D01*
X10508158Y-12126960D02*
X10489110Y-12136484D01*
X10489110Y-12136484D02*
X10470063Y-12136484D01*
X10470063Y-12136484D02*
X10451015Y-12126960D01*
X10451015Y-12126960D02*
X10441491Y-12117436D01*
X10441491Y-12117436D02*
X10431967Y-12098388D01*
X10431967Y-12098388D02*
X10422444Y-12060293D01*
X10422444Y-12060293D02*
X10422444Y-12012674D01*
X10422444Y-12012674D02*
X10431967Y-11974579D01*
X10431967Y-11974579D02*
X10441491Y-11955531D01*
X10441491Y-11955531D02*
X10451015Y-11946008D01*
X10451015Y-11946008D02*
X10470063Y-11936484D01*
X10660539Y-11936484D02*
X10679586Y-11936484D01*
X10679586Y-11936484D02*
X10698634Y-11946008D01*
X10698634Y-11946008D02*
X10708158Y-11955531D01*
X10708158Y-11955531D02*
X10717682Y-11974579D01*
X10717682Y-11974579D02*
X10727205Y-12012674D01*
X10727205Y-12012674D02*
X10727205Y-12060293D01*
X10727205Y-12060293D02*
X10717682Y-12098388D01*
X10717682Y-12098388D02*
X10708158Y-12117436D01*
X10708158Y-12117436D02*
X10698634Y-12126960D01*
X10698634Y-12126960D02*
X10679586Y-12136484D01*
X10679586Y-12136484D02*
X10660539Y-12136484D01*
X10660539Y-12136484D02*
X10641491Y-12126960D01*
X10641491Y-12126960D02*
X10631967Y-12117436D01*
X10631967Y-12117436D02*
X10622444Y-12098388D01*
X10622444Y-12098388D02*
X10612920Y-12060293D01*
X10612920Y-12060293D02*
X10612920Y-12012674D01*
X10612920Y-12012674D02*
X10622444Y-11974579D01*
X10622444Y-11974579D02*
X10631967Y-11955531D01*
X10631967Y-11955531D02*
X10641491Y-11946008D01*
X10641491Y-11946008D02*
X10660539Y-11936484D01*
X10812920Y-12136484D02*
X10812920Y-12003150D01*
X10812920Y-12022198D02*
X10822444Y-12012674D01*
X10822444Y-12012674D02*
X10841491Y-12003150D01*
X10841491Y-12003150D02*
X10870063Y-12003150D01*
X10870063Y-12003150D02*
X10889110Y-12012674D01*
X10889110Y-12012674D02*
X10898634Y-12031722D01*
X10898634Y-12031722D02*
X10898634Y-12136484D01*
X10898634Y-12031722D02*
X10908158Y-12012674D01*
X10908158Y-12012674D02*
X10927205Y-12003150D01*
X10927205Y-12003150D02*
X10955777Y-12003150D01*
X10955777Y-12003150D02*
X10974825Y-12012674D01*
X10974825Y-12012674D02*
X10984348Y-12031722D01*
X10984348Y-12031722D02*
X10984348Y-12136484D01*
X11079586Y-12136484D02*
X11079586Y-12003150D01*
X11079586Y-12022198D02*
X11089110Y-12012674D01*
X11089110Y-12012674D02*
X11108158Y-12003150D01*
X11108158Y-12003150D02*
X11136729Y-12003150D01*
X11136729Y-12003150D02*
X11155777Y-12012674D01*
X11155777Y-12012674D02*
X11165301Y-12031722D01*
X11165301Y-12031722D02*
X11165301Y-12136484D01*
X11165301Y-12031722D02*
X11174825Y-12012674D01*
X11174825Y-12012674D02*
X11193872Y-12003150D01*
X11193872Y-12003150D02*
X11222443Y-12003150D01*
X11222443Y-12003150D02*
X11241491Y-12012674D01*
X11241491Y-12012674D02*
X11251015Y-12031722D01*
X11251015Y-12031722D02*
X11251015Y-12136484D01*
X11641491Y-11926960D02*
X11470063Y-12184103D01*
X11898634Y-11936484D02*
X11917682Y-11936484D01*
X11917682Y-11936484D02*
X11936729Y-11946008D01*
X11936729Y-11946008D02*
X11946253Y-11955531D01*
X11946253Y-11955531D02*
X11955777Y-11974579D01*
X11955777Y-11974579D02*
X11965301Y-12012674D01*
X11965301Y-12012674D02*
X11965301Y-12060293D01*
X11965301Y-12060293D02*
X11955777Y-12098388D01*
X11955777Y-12098388D02*
X11946253Y-12117436D01*
X11946253Y-12117436D02*
X11936729Y-12126960D01*
X11936729Y-12126960D02*
X11917682Y-12136484D01*
X11917682Y-12136484D02*
X11898634Y-12136484D01*
X11898634Y-12136484D02*
X11879586Y-12126960D01*
X11879586Y-12126960D02*
X11870063Y-12117436D01*
X11870063Y-12117436D02*
X11860539Y-12098388D01*
X11860539Y-12098388D02*
X11851015Y-12060293D01*
X11851015Y-12060293D02*
X11851015Y-12012674D01*
X11851015Y-12012674D02*
X11860539Y-11974579D01*
X11860539Y-11974579D02*
X11870063Y-11955531D01*
X11870063Y-11955531D02*
X11879586Y-11946008D01*
X11879586Y-11946008D02*
X11898634Y-11936484D01*
X12051015Y-12117436D02*
X12060539Y-12126960D01*
X12060539Y-12126960D02*
X12051015Y-12136484D01*
X12051015Y-12136484D02*
X12041491Y-12126960D01*
X12041491Y-12126960D02*
X12051015Y-12117436D01*
X12051015Y-12117436D02*
X12051015Y-12136484D01*
X12184348Y-11936484D02*
X12203396Y-11936484D01*
X12203396Y-11936484D02*
X12222444Y-11946008D01*
X12222444Y-11946008D02*
X12231967Y-11955531D01*
X12231967Y-11955531D02*
X12241491Y-11974579D01*
X12241491Y-11974579D02*
X12251015Y-12012674D01*
X12251015Y-12012674D02*
X12251015Y-12060293D01*
X12251015Y-12060293D02*
X12241491Y-12098388D01*
X12241491Y-12098388D02*
X12231967Y-12117436D01*
X12231967Y-12117436D02*
X12222444Y-12126960D01*
X12222444Y-12126960D02*
X12203396Y-12136484D01*
X12203396Y-12136484D02*
X12184348Y-12136484D01*
X12184348Y-12136484D02*
X12165301Y-12126960D01*
X12165301Y-12126960D02*
X12155777Y-12117436D01*
X12155777Y-12117436D02*
X12146253Y-12098388D01*
X12146253Y-12098388D02*
X12136729Y-12060293D01*
X12136729Y-12060293D02*
X12136729Y-12012674D01*
X12136729Y-12012674D02*
X12146253Y-11974579D01*
X12146253Y-11974579D02*
X12155777Y-11955531D01*
X12155777Y-11955531D02*
X12165301Y-11946008D01*
X12165301Y-11946008D02*
X12184348Y-11936484D01*
X12441491Y-12136484D02*
X12327206Y-12136484D01*
X12384348Y-12136484D02*
X12384348Y-11936484D01*
X12384348Y-11936484D02*
X12365301Y-11965055D01*
X12365301Y-11965055D02*
X12346253Y-11984103D01*
X12346253Y-11984103D02*
X12327206Y-11993627D01*
X12622444Y-11936484D02*
X12527206Y-11936484D01*
X12527206Y-11936484D02*
X12517682Y-12031722D01*
X12517682Y-12031722D02*
X12527206Y-12022198D01*
X12527206Y-12022198D02*
X12546253Y-12012674D01*
X12546253Y-12012674D02*
X12593872Y-12012674D01*
X12593872Y-12012674D02*
X12612920Y-12022198D01*
X12612920Y-12022198D02*
X12622444Y-12031722D01*
X12622444Y-12031722D02*
X12631967Y-12050769D01*
X12631967Y-12050769D02*
X12631967Y-12098388D01*
X12631967Y-12098388D02*
X12622444Y-12117436D01*
X12622444Y-12117436D02*
X12612920Y-12126960D01*
X12612920Y-12126960D02*
X12593872Y-12136484D01*
X12593872Y-12136484D02*
X12546253Y-12136484D01*
X12546253Y-12136484D02*
X12527206Y-12126960D01*
X12527206Y-12126960D02*
X12517682Y-12117436D01*
X12698634Y-11936484D02*
X12831967Y-11936484D01*
X12831967Y-11936484D02*
X12746253Y-12136484D01*
X12898634Y-11936484D02*
X12898634Y-11974579D01*
X12974825Y-11936484D02*
X12974825Y-11974579D01*
X13270063Y-12212674D02*
X13260539Y-12203150D01*
X13260539Y-12203150D02*
X13241491Y-12174579D01*
X13241491Y-12174579D02*
X13231968Y-12155531D01*
X13231968Y-12155531D02*
X13222444Y-12126960D01*
X13222444Y-12126960D02*
X13212920Y-12079341D01*
X13212920Y-12079341D02*
X13212920Y-12041246D01*
X13212920Y-12041246D02*
X13222444Y-11993627D01*
X13222444Y-11993627D02*
X13231968Y-11965055D01*
X13231968Y-11965055D02*
X13241491Y-11946008D01*
X13241491Y-11946008D02*
X13260539Y-11917436D01*
X13260539Y-11917436D02*
X13270063Y-11907912D01*
X13441491Y-11936484D02*
X13346253Y-11936484D01*
X13346253Y-11936484D02*
X13336729Y-12031722D01*
X13336729Y-12031722D02*
X13346253Y-12022198D01*
X13346253Y-12022198D02*
X13365301Y-12012674D01*
X13365301Y-12012674D02*
X13412920Y-12012674D01*
X13412920Y-12012674D02*
X13431968Y-12022198D01*
X13431968Y-12022198D02*
X13441491Y-12031722D01*
X13441491Y-12031722D02*
X13451015Y-12050769D01*
X13451015Y-12050769D02*
X13451015Y-12098388D01*
X13451015Y-12098388D02*
X13441491Y-12117436D01*
X13441491Y-12117436D02*
X13431968Y-12126960D01*
X13431968Y-12126960D02*
X13412920Y-12136484D01*
X13412920Y-12136484D02*
X13365301Y-12136484D01*
X13365301Y-12136484D02*
X13346253Y-12126960D01*
X13346253Y-12126960D02*
X13336729Y-12117436D01*
X13689110Y-12136484D02*
X13689110Y-11936484D01*
X13774825Y-12136484D02*
X13774825Y-12031722D01*
X13774825Y-12031722D02*
X13765301Y-12012674D01*
X13765301Y-12012674D02*
X13746253Y-12003150D01*
X13746253Y-12003150D02*
X13717682Y-12003150D01*
X13717682Y-12003150D02*
X13698634Y-12012674D01*
X13698634Y-12012674D02*
X13689110Y-12022198D01*
X13898634Y-12136484D02*
X13879587Y-12126960D01*
X13879587Y-12126960D02*
X13870063Y-12117436D01*
X13870063Y-12117436D02*
X13860539Y-12098388D01*
X13860539Y-12098388D02*
X13860539Y-12041246D01*
X13860539Y-12041246D02*
X13870063Y-12022198D01*
X13870063Y-12022198D02*
X13879587Y-12012674D01*
X13879587Y-12012674D02*
X13898634Y-12003150D01*
X13898634Y-12003150D02*
X13927206Y-12003150D01*
X13927206Y-12003150D02*
X13946253Y-12012674D01*
X13946253Y-12012674D02*
X13955777Y-12022198D01*
X13955777Y-12022198D02*
X13965301Y-12041246D01*
X13965301Y-12041246D02*
X13965301Y-12098388D01*
X13965301Y-12098388D02*
X13955777Y-12117436D01*
X13955777Y-12117436D02*
X13946253Y-12126960D01*
X13946253Y-12126960D02*
X13927206Y-12136484D01*
X13927206Y-12136484D02*
X13898634Y-12136484D01*
X14079587Y-12136484D02*
X14060539Y-12126960D01*
X14060539Y-12126960D02*
X14051015Y-12107912D01*
X14051015Y-12107912D02*
X14051015Y-11936484D01*
X14231968Y-12126960D02*
X14212920Y-12136484D01*
X14212920Y-12136484D02*
X14174825Y-12136484D01*
X14174825Y-12136484D02*
X14155777Y-12126960D01*
X14155777Y-12126960D02*
X14146253Y-12107912D01*
X14146253Y-12107912D02*
X14146253Y-12031722D01*
X14146253Y-12031722D02*
X14155777Y-12012674D01*
X14155777Y-12012674D02*
X14174825Y-12003150D01*
X14174825Y-12003150D02*
X14212920Y-12003150D01*
X14212920Y-12003150D02*
X14231968Y-12012674D01*
X14231968Y-12012674D02*
X14241491Y-12031722D01*
X14241491Y-12031722D02*
X14241491Y-12050769D01*
X14241491Y-12050769D02*
X14146253Y-12069817D01*
X14317682Y-12126960D02*
X14336730Y-12136484D01*
X14336730Y-12136484D02*
X14374825Y-12136484D01*
X14374825Y-12136484D02*
X14393872Y-12126960D01*
X14393872Y-12126960D02*
X14403396Y-12107912D01*
X14403396Y-12107912D02*
X14403396Y-12098388D01*
X14403396Y-12098388D02*
X14393872Y-12079341D01*
X14393872Y-12079341D02*
X14374825Y-12069817D01*
X14374825Y-12069817D02*
X14346253Y-12069817D01*
X14346253Y-12069817D02*
X14327206Y-12060293D01*
X14327206Y-12060293D02*
X14317682Y-12041246D01*
X14317682Y-12041246D02*
X14317682Y-12031722D01*
X14317682Y-12031722D02*
X14327206Y-12012674D01*
X14327206Y-12012674D02*
X14346253Y-12003150D01*
X14346253Y-12003150D02*
X14374825Y-12003150D01*
X14374825Y-12003150D02*
X14393872Y-12012674D01*
X14470063Y-12212674D02*
X14479587Y-12203150D01*
X14479587Y-12203150D02*
X14498634Y-12174579D01*
X14498634Y-12174579D02*
X14508158Y-12155531D01*
X14508158Y-12155531D02*
X14517682Y-12126960D01*
X14517682Y-12126960D02*
X14527206Y-12079341D01*
X14527206Y-12079341D02*
X14527206Y-12041246D01*
X14527206Y-12041246D02*
X14517682Y-11993627D01*
X14517682Y-11993627D02*
X14508158Y-11965055D01*
X14508158Y-11965055D02*
X14498634Y-11946008D01*
X14498634Y-11946008D02*
X14479587Y-11917436D01*
X14479587Y-11917436D02*
X14470063Y-11907912D01*
D10*
X9695000Y-12309000D02*
G75*
G03*
X9695000Y-12309000I-37500J0D01*
G01*
D11*
X9993872Y-12200484D02*
X10012920Y-12200484D01*
X10012920Y-12200484D02*
X10031967Y-12210008D01*
X10031967Y-12210008D02*
X10041491Y-12219531D01*
X10041491Y-12219531D02*
X10051015Y-12238579D01*
X10051015Y-12238579D02*
X10060539Y-12276674D01*
X10060539Y-12276674D02*
X10060539Y-12324293D01*
X10060539Y-12324293D02*
X10051015Y-12362388D01*
X10051015Y-12362388D02*
X10041491Y-12381436D01*
X10041491Y-12381436D02*
X10031967Y-12390960D01*
X10031967Y-12390960D02*
X10012920Y-12400484D01*
X10012920Y-12400484D02*
X9993872Y-12400484D01*
X9993872Y-12400484D02*
X9974824Y-12390960D01*
X9974824Y-12390960D02*
X9965301Y-12381436D01*
X9965301Y-12381436D02*
X9955777Y-12362388D01*
X9955777Y-12362388D02*
X9946253Y-12324293D01*
X9946253Y-12324293D02*
X9946253Y-12276674D01*
X9946253Y-12276674D02*
X9955777Y-12238579D01*
X9955777Y-12238579D02*
X9965301Y-12219531D01*
X9965301Y-12219531D02*
X9974824Y-12210008D01*
X9974824Y-12210008D02*
X9993872Y-12200484D01*
X10146253Y-12381436D02*
X10155777Y-12390960D01*
X10155777Y-12390960D02*
X10146253Y-12400484D01*
X10146253Y-12400484D02*
X10136729Y-12390960D01*
X10136729Y-12390960D02*
X10146253Y-12381436D01*
X10146253Y-12381436D02*
X10146253Y-12400484D01*
X10222444Y-12200484D02*
X10355777Y-12200484D01*
X10355777Y-12200484D02*
X10270063Y-12400484D01*
X10527205Y-12200484D02*
X10431967Y-12200484D01*
X10431967Y-12200484D02*
X10422444Y-12295722D01*
X10422444Y-12295722D02*
X10431967Y-12286198D01*
X10431967Y-12286198D02*
X10451015Y-12276674D01*
X10451015Y-12276674D02*
X10498634Y-12276674D01*
X10498634Y-12276674D02*
X10517682Y-12286198D01*
X10517682Y-12286198D02*
X10527205Y-12295722D01*
X10527205Y-12295722D02*
X10536729Y-12314769D01*
X10536729Y-12314769D02*
X10536729Y-12362388D01*
X10536729Y-12362388D02*
X10527205Y-12381436D01*
X10527205Y-12381436D02*
X10517682Y-12390960D01*
X10517682Y-12390960D02*
X10498634Y-12400484D01*
X10498634Y-12400484D02*
X10451015Y-12400484D01*
X10451015Y-12400484D02*
X10431967Y-12390960D01*
X10431967Y-12390960D02*
X10422444Y-12381436D01*
X10660539Y-12200484D02*
X10679586Y-12200484D01*
X10679586Y-12200484D02*
X10698634Y-12210008D01*
X10698634Y-12210008D02*
X10708158Y-12219531D01*
X10708158Y-12219531D02*
X10717682Y-12238579D01*
X10717682Y-12238579D02*
X10727205Y-12276674D01*
X10727205Y-12276674D02*
X10727205Y-12324293D01*
X10727205Y-12324293D02*
X10717682Y-12362388D01*
X10717682Y-12362388D02*
X10708158Y-12381436D01*
X10708158Y-12381436D02*
X10698634Y-12390960D01*
X10698634Y-12390960D02*
X10679586Y-12400484D01*
X10679586Y-12400484D02*
X10660539Y-12400484D01*
X10660539Y-12400484D02*
X10641491Y-12390960D01*
X10641491Y-12390960D02*
X10631967Y-12381436D01*
X10631967Y-12381436D02*
X10622444Y-12362388D01*
X10622444Y-12362388D02*
X10612920Y-12324293D01*
X10612920Y-12324293D02*
X10612920Y-12276674D01*
X10612920Y-12276674D02*
X10622444Y-12238579D01*
X10622444Y-12238579D02*
X10631967Y-12219531D01*
X10631967Y-12219531D02*
X10641491Y-12210008D01*
X10641491Y-12210008D02*
X10660539Y-12200484D01*
X10812920Y-12400484D02*
X10812920Y-12267150D01*
X10812920Y-12286198D02*
X10822444Y-12276674D01*
X10822444Y-12276674D02*
X10841491Y-12267150D01*
X10841491Y-12267150D02*
X10870063Y-12267150D01*
X10870063Y-12267150D02*
X10889110Y-12276674D01*
X10889110Y-12276674D02*
X10898634Y-12295722D01*
X10898634Y-12295722D02*
X10898634Y-12400484D01*
X10898634Y-12295722D02*
X10908158Y-12276674D01*
X10908158Y-12276674D02*
X10927205Y-12267150D01*
X10927205Y-12267150D02*
X10955777Y-12267150D01*
X10955777Y-12267150D02*
X10974825Y-12276674D01*
X10974825Y-12276674D02*
X10984348Y-12295722D01*
X10984348Y-12295722D02*
X10984348Y-12400484D01*
X11079586Y-12400484D02*
X11079586Y-12267150D01*
X11079586Y-12286198D02*
X11089110Y-12276674D01*
X11089110Y-12276674D02*
X11108158Y-12267150D01*
X11108158Y-12267150D02*
X11136729Y-12267150D01*
X11136729Y-12267150D02*
X11155777Y-12276674D01*
X11155777Y-12276674D02*
X11165301Y-12295722D01*
X11165301Y-12295722D02*
X11165301Y-12400484D01*
X11165301Y-12295722D02*
X11174825Y-12276674D01*
X11174825Y-12276674D02*
X11193872Y-12267150D01*
X11193872Y-12267150D02*
X11222443Y-12267150D01*
X11222443Y-12267150D02*
X11241491Y-12276674D01*
X11241491Y-12276674D02*
X11251015Y-12295722D01*
X11251015Y-12295722D02*
X11251015Y-12400484D01*
X11641491Y-12190960D02*
X11470063Y-12448103D01*
X11898634Y-12200484D02*
X11917682Y-12200484D01*
X11917682Y-12200484D02*
X11936729Y-12210008D01*
X11936729Y-12210008D02*
X11946253Y-12219531D01*
X11946253Y-12219531D02*
X11955777Y-12238579D01*
X11955777Y-12238579D02*
X11965301Y-12276674D01*
X11965301Y-12276674D02*
X11965301Y-12324293D01*
X11965301Y-12324293D02*
X11955777Y-12362388D01*
X11955777Y-12362388D02*
X11946253Y-12381436D01*
X11946253Y-12381436D02*
X11936729Y-12390960D01*
X11936729Y-12390960D02*
X11917682Y-12400484D01*
X11917682Y-12400484D02*
X11898634Y-12400484D01*
X11898634Y-12400484D02*
X11879586Y-12390960D01*
X11879586Y-12390960D02*
X11870063Y-12381436D01*
X11870063Y-12381436D02*
X11860539Y-12362388D01*
X11860539Y-12362388D02*
X11851015Y-12324293D01*
X11851015Y-12324293D02*
X11851015Y-12276674D01*
X11851015Y-12276674D02*
X11860539Y-12238579D01*
X11860539Y-12238579D02*
X11870063Y-12219531D01*
X11870063Y-12219531D02*
X11879586Y-12210008D01*
X11879586Y-12210008D02*
X11898634Y-12200484D01*
X12051015Y-12381436D02*
X12060539Y-12390960D01*
X12060539Y-12390960D02*
X12051015Y-12400484D01*
X12051015Y-12400484D02*
X12041491Y-12390960D01*
X12041491Y-12390960D02*
X12051015Y-12381436D01*
X12051015Y-12381436D02*
X12051015Y-12400484D01*
X12184348Y-12200484D02*
X12203396Y-12200484D01*
X12203396Y-12200484D02*
X12222444Y-12210008D01*
X12222444Y-12210008D02*
X12231967Y-12219531D01*
X12231967Y-12219531D02*
X12241491Y-12238579D01*
X12241491Y-12238579D02*
X12251015Y-12276674D01*
X12251015Y-12276674D02*
X12251015Y-12324293D01*
X12251015Y-12324293D02*
X12241491Y-12362388D01*
X12241491Y-12362388D02*
X12231967Y-12381436D01*
X12231967Y-12381436D02*
X12222444Y-12390960D01*
X12222444Y-12390960D02*
X12203396Y-12400484D01*
X12203396Y-12400484D02*
X12184348Y-12400484D01*
X12184348Y-12400484D02*
X12165301Y-12390960D01*
X12165301Y-12390960D02*
X12155777Y-12381436D01*
X12155777Y-12381436D02*
X12146253Y-12362388D01*
X12146253Y-12362388D02*
X12136729Y-12324293D01*
X12136729Y-12324293D02*
X12136729Y-12276674D01*
X12136729Y-12276674D02*
X12146253Y-12238579D01*
X12146253Y-12238579D02*
X12155777Y-12219531D01*
X12155777Y-12219531D02*
X12165301Y-12210008D01*
X12165301Y-12210008D02*
X12184348Y-12200484D01*
X12327206Y-12219531D02*
X12336729Y-12210008D01*
X12336729Y-12210008D02*
X12355777Y-12200484D01*
X12355777Y-12200484D02*
X12403396Y-12200484D01*
X12403396Y-12200484D02*
X12422444Y-12210008D01*
X12422444Y-12210008D02*
X12431967Y-12219531D01*
X12431967Y-12219531D02*
X12441491Y-12238579D01*
X12441491Y-12238579D02*
X12441491Y-12257627D01*
X12441491Y-12257627D02*
X12431967Y-12286198D01*
X12431967Y-12286198D02*
X12317682Y-12400484D01*
X12317682Y-12400484D02*
X12441491Y-12400484D01*
X12536729Y-12400484D02*
X12574825Y-12400484D01*
X12574825Y-12400484D02*
X12593872Y-12390960D01*
X12593872Y-12390960D02*
X12603396Y-12381436D01*
X12603396Y-12381436D02*
X12622444Y-12352865D01*
X12622444Y-12352865D02*
X12631967Y-12314769D01*
X12631967Y-12314769D02*
X12631967Y-12238579D01*
X12631967Y-12238579D02*
X12622444Y-12219531D01*
X12622444Y-12219531D02*
X12612920Y-12210008D01*
X12612920Y-12210008D02*
X12593872Y-12200484D01*
X12593872Y-12200484D02*
X12555777Y-12200484D01*
X12555777Y-12200484D02*
X12536729Y-12210008D01*
X12536729Y-12210008D02*
X12527206Y-12219531D01*
X12527206Y-12219531D02*
X12517682Y-12238579D01*
X12517682Y-12238579D02*
X12517682Y-12286198D01*
X12517682Y-12286198D02*
X12527206Y-12305246D01*
X12527206Y-12305246D02*
X12536729Y-12314769D01*
X12536729Y-12314769D02*
X12555777Y-12324293D01*
X12555777Y-12324293D02*
X12593872Y-12324293D01*
X12593872Y-12324293D02*
X12612920Y-12314769D01*
X12612920Y-12314769D02*
X12622444Y-12305246D01*
X12622444Y-12305246D02*
X12631967Y-12286198D01*
X12812920Y-12200484D02*
X12717682Y-12200484D01*
X12717682Y-12200484D02*
X12708158Y-12295722D01*
X12708158Y-12295722D02*
X12717682Y-12286198D01*
X12717682Y-12286198D02*
X12736729Y-12276674D01*
X12736729Y-12276674D02*
X12784348Y-12276674D01*
X12784348Y-12276674D02*
X12803396Y-12286198D01*
X12803396Y-12286198D02*
X12812920Y-12295722D01*
X12812920Y-12295722D02*
X12822444Y-12314769D01*
X12822444Y-12314769D02*
X12822444Y-12362388D01*
X12822444Y-12362388D02*
X12812920Y-12381436D01*
X12812920Y-12381436D02*
X12803396Y-12390960D01*
X12803396Y-12390960D02*
X12784348Y-12400484D01*
X12784348Y-12400484D02*
X12736729Y-12400484D01*
X12736729Y-12400484D02*
X12717682Y-12390960D01*
X12717682Y-12390960D02*
X12708158Y-12381436D01*
X12898634Y-12200484D02*
X12898634Y-12238579D01*
X12974825Y-12200484D02*
X12974825Y-12238579D01*
X13270063Y-12476674D02*
X13260539Y-12467150D01*
X13260539Y-12467150D02*
X13241491Y-12438579D01*
X13241491Y-12438579D02*
X13231968Y-12419531D01*
X13231968Y-12419531D02*
X13222444Y-12390960D01*
X13222444Y-12390960D02*
X13212920Y-12343341D01*
X13212920Y-12343341D02*
X13212920Y-12305246D01*
X13212920Y-12305246D02*
X13222444Y-12257627D01*
X13222444Y-12257627D02*
X13231968Y-12229055D01*
X13231968Y-12229055D02*
X13241491Y-12210008D01*
X13241491Y-12210008D02*
X13260539Y-12181436D01*
X13260539Y-12181436D02*
X13270063Y-12171912D01*
X13431968Y-12200484D02*
X13393872Y-12200484D01*
X13393872Y-12200484D02*
X13374825Y-12210008D01*
X13374825Y-12210008D02*
X13365301Y-12219531D01*
X13365301Y-12219531D02*
X13346253Y-12248103D01*
X13346253Y-12248103D02*
X13336729Y-12286198D01*
X13336729Y-12286198D02*
X13336729Y-12362388D01*
X13336729Y-12362388D02*
X13346253Y-12381436D01*
X13346253Y-12381436D02*
X13355777Y-12390960D01*
X13355777Y-12390960D02*
X13374825Y-12400484D01*
X13374825Y-12400484D02*
X13412920Y-12400484D01*
X13412920Y-12400484D02*
X13431968Y-12390960D01*
X13431968Y-12390960D02*
X13441491Y-12381436D01*
X13441491Y-12381436D02*
X13451015Y-12362388D01*
X13451015Y-12362388D02*
X13451015Y-12314769D01*
X13451015Y-12314769D02*
X13441491Y-12295722D01*
X13441491Y-12295722D02*
X13431968Y-12286198D01*
X13431968Y-12286198D02*
X13412920Y-12276674D01*
X13412920Y-12276674D02*
X13374825Y-12276674D01*
X13374825Y-12276674D02*
X13355777Y-12286198D01*
X13355777Y-12286198D02*
X13346253Y-12295722D01*
X13346253Y-12295722D02*
X13336729Y-12314769D01*
X13689110Y-12400484D02*
X13689110Y-12200484D01*
X13774825Y-12400484D02*
X13774825Y-12295722D01*
X13774825Y-12295722D02*
X13765301Y-12276674D01*
X13765301Y-12276674D02*
X13746253Y-12267150D01*
X13746253Y-12267150D02*
X13717682Y-12267150D01*
X13717682Y-12267150D02*
X13698634Y-12276674D01*
X13698634Y-12276674D02*
X13689110Y-12286198D01*
X13898634Y-12400484D02*
X13879587Y-12390960D01*
X13879587Y-12390960D02*
X13870063Y-12381436D01*
X13870063Y-12381436D02*
X13860539Y-12362388D01*
X13860539Y-12362388D02*
X13860539Y-12305246D01*
X13860539Y-12305246D02*
X13870063Y-12286198D01*
X13870063Y-12286198D02*
X13879587Y-12276674D01*
X13879587Y-12276674D02*
X13898634Y-12267150D01*
X13898634Y-12267150D02*
X13927206Y-12267150D01*
X13927206Y-12267150D02*
X13946253Y-12276674D01*
X13946253Y-12276674D02*
X13955777Y-12286198D01*
X13955777Y-12286198D02*
X13965301Y-12305246D01*
X13965301Y-12305246D02*
X13965301Y-12362388D01*
X13965301Y-12362388D02*
X13955777Y-12381436D01*
X13955777Y-12381436D02*
X13946253Y-12390960D01*
X13946253Y-12390960D02*
X13927206Y-12400484D01*
X13927206Y-12400484D02*
X13898634Y-12400484D01*
X14079587Y-12400484D02*
X14060539Y-12390960D01*
X14060539Y-12390960D02*
X14051015Y-12371912D01*
X14051015Y-12371912D02*
X14051015Y-12200484D01*
X14231968Y-12390960D02*
X14212920Y-12400484D01*
X14212920Y-12400484D02*
X14174825Y-12400484D01*
X14174825Y-12400484D02*
X14155777Y-12390960D01*
X14155777Y-12390960D02*
X14146253Y-12371912D01*
X14146253Y-12371912D02*
X14146253Y-12295722D01*
X14146253Y-12295722D02*
X14155777Y-12276674D01*
X14155777Y-12276674D02*
X14174825Y-12267150D01*
X14174825Y-12267150D02*
X14212920Y-12267150D01*
X14212920Y-12267150D02*
X14231968Y-12276674D01*
X14231968Y-12276674D02*
X14241491Y-12295722D01*
X14241491Y-12295722D02*
X14241491Y-12314769D01*
X14241491Y-12314769D02*
X14146253Y-12333817D01*
X14317682Y-12390960D02*
X14336730Y-12400484D01*
X14336730Y-12400484D02*
X14374825Y-12400484D01*
X14374825Y-12400484D02*
X14393872Y-12390960D01*
X14393872Y-12390960D02*
X14403396Y-12371912D01*
X14403396Y-12371912D02*
X14403396Y-12362388D01*
X14403396Y-12362388D02*
X14393872Y-12343341D01*
X14393872Y-12343341D02*
X14374825Y-12333817D01*
X14374825Y-12333817D02*
X14346253Y-12333817D01*
X14346253Y-12333817D02*
X14327206Y-12324293D01*
X14327206Y-12324293D02*
X14317682Y-12305246D01*
X14317682Y-12305246D02*
X14317682Y-12295722D01*
X14317682Y-12295722D02*
X14327206Y-12276674D01*
X14327206Y-12276674D02*
X14346253Y-12267150D01*
X14346253Y-12267150D02*
X14374825Y-12267150D01*
X14374825Y-12267150D02*
X14393872Y-12276674D01*
X14470063Y-12476674D02*
X14479587Y-12467150D01*
X14479587Y-12467150D02*
X14498634Y-12438579D01*
X14498634Y-12438579D02*
X14508158Y-12419531D01*
X14508158Y-12419531D02*
X14517682Y-12390960D01*
X14517682Y-12390960D02*
X14527206Y-12343341D01*
X14527206Y-12343341D02*
X14527206Y-12305246D01*
X14527206Y-12305246D02*
X14517682Y-12257627D01*
X14517682Y-12257627D02*
X14508158Y-12229055D01*
X14508158Y-12229055D02*
X14498634Y-12210008D01*
X14498634Y-12210008D02*
X14479587Y-12181436D01*
X14479587Y-12181436D02*
X14470063Y-12171912D01*
D10*
X9645000Y-12523000D02*
X9645000Y-12623000D01*
X9595000Y-12573000D02*
X9695000Y-12573000D01*
D11*
X10060539Y-12664484D02*
X9946253Y-12664484D01*
X10003396Y-12664484D02*
X10003396Y-12464484D01*
X10003396Y-12464484D02*
X9984348Y-12493055D01*
X9984348Y-12493055D02*
X9965301Y-12512103D01*
X9965301Y-12512103D02*
X9946253Y-12521627D01*
X10146253Y-12645436D02*
X10155777Y-12654960D01*
X10155777Y-12654960D02*
X10146253Y-12664484D01*
X10146253Y-12664484D02*
X10136729Y-12654960D01*
X10136729Y-12654960D02*
X10146253Y-12645436D01*
X10146253Y-12645436D02*
X10146253Y-12664484D01*
X10279586Y-12464484D02*
X10298634Y-12464484D01*
X10298634Y-12464484D02*
X10317682Y-12474008D01*
X10317682Y-12474008D02*
X10327205Y-12483531D01*
X10327205Y-12483531D02*
X10336729Y-12502579D01*
X10336729Y-12502579D02*
X10346253Y-12540674D01*
X10346253Y-12540674D02*
X10346253Y-12588293D01*
X10346253Y-12588293D02*
X10336729Y-12626388D01*
X10336729Y-12626388D02*
X10327205Y-12645436D01*
X10327205Y-12645436D02*
X10317682Y-12654960D01*
X10317682Y-12654960D02*
X10298634Y-12664484D01*
X10298634Y-12664484D02*
X10279586Y-12664484D01*
X10279586Y-12664484D02*
X10260539Y-12654960D01*
X10260539Y-12654960D02*
X10251015Y-12645436D01*
X10251015Y-12645436D02*
X10241491Y-12626388D01*
X10241491Y-12626388D02*
X10231967Y-12588293D01*
X10231967Y-12588293D02*
X10231967Y-12540674D01*
X10231967Y-12540674D02*
X10241491Y-12502579D01*
X10241491Y-12502579D02*
X10251015Y-12483531D01*
X10251015Y-12483531D02*
X10260539Y-12474008D01*
X10260539Y-12474008D02*
X10279586Y-12464484D01*
X10470063Y-12464484D02*
X10489110Y-12464484D01*
X10489110Y-12464484D02*
X10508158Y-12474008D01*
X10508158Y-12474008D02*
X10517682Y-12483531D01*
X10517682Y-12483531D02*
X10527205Y-12502579D01*
X10527205Y-12502579D02*
X10536729Y-12540674D01*
X10536729Y-12540674D02*
X10536729Y-12588293D01*
X10536729Y-12588293D02*
X10527205Y-12626388D01*
X10527205Y-12626388D02*
X10517682Y-12645436D01*
X10517682Y-12645436D02*
X10508158Y-12654960D01*
X10508158Y-12654960D02*
X10489110Y-12664484D01*
X10489110Y-12664484D02*
X10470063Y-12664484D01*
X10470063Y-12664484D02*
X10451015Y-12654960D01*
X10451015Y-12654960D02*
X10441491Y-12645436D01*
X10441491Y-12645436D02*
X10431967Y-12626388D01*
X10431967Y-12626388D02*
X10422444Y-12588293D01*
X10422444Y-12588293D02*
X10422444Y-12540674D01*
X10422444Y-12540674D02*
X10431967Y-12502579D01*
X10431967Y-12502579D02*
X10441491Y-12483531D01*
X10441491Y-12483531D02*
X10451015Y-12474008D01*
X10451015Y-12474008D02*
X10470063Y-12464484D01*
X10660539Y-12464484D02*
X10679586Y-12464484D01*
X10679586Y-12464484D02*
X10698634Y-12474008D01*
X10698634Y-12474008D02*
X10708158Y-12483531D01*
X10708158Y-12483531D02*
X10717682Y-12502579D01*
X10717682Y-12502579D02*
X10727205Y-12540674D01*
X10727205Y-12540674D02*
X10727205Y-12588293D01*
X10727205Y-12588293D02*
X10717682Y-12626388D01*
X10717682Y-12626388D02*
X10708158Y-12645436D01*
X10708158Y-12645436D02*
X10698634Y-12654960D01*
X10698634Y-12654960D02*
X10679586Y-12664484D01*
X10679586Y-12664484D02*
X10660539Y-12664484D01*
X10660539Y-12664484D02*
X10641491Y-12654960D01*
X10641491Y-12654960D02*
X10631967Y-12645436D01*
X10631967Y-12645436D02*
X10622444Y-12626388D01*
X10622444Y-12626388D02*
X10612920Y-12588293D01*
X10612920Y-12588293D02*
X10612920Y-12540674D01*
X10612920Y-12540674D02*
X10622444Y-12502579D01*
X10622444Y-12502579D02*
X10631967Y-12483531D01*
X10631967Y-12483531D02*
X10641491Y-12474008D01*
X10641491Y-12474008D02*
X10660539Y-12464484D01*
X10812920Y-12664484D02*
X10812920Y-12531150D01*
X10812920Y-12550198D02*
X10822444Y-12540674D01*
X10822444Y-12540674D02*
X10841491Y-12531150D01*
X10841491Y-12531150D02*
X10870063Y-12531150D01*
X10870063Y-12531150D02*
X10889110Y-12540674D01*
X10889110Y-12540674D02*
X10898634Y-12559722D01*
X10898634Y-12559722D02*
X10898634Y-12664484D01*
X10898634Y-12559722D02*
X10908158Y-12540674D01*
X10908158Y-12540674D02*
X10927205Y-12531150D01*
X10927205Y-12531150D02*
X10955777Y-12531150D01*
X10955777Y-12531150D02*
X10974825Y-12540674D01*
X10974825Y-12540674D02*
X10984348Y-12559722D01*
X10984348Y-12559722D02*
X10984348Y-12664484D01*
X11079586Y-12664484D02*
X11079586Y-12531150D01*
X11079586Y-12550198D02*
X11089110Y-12540674D01*
X11089110Y-12540674D02*
X11108158Y-12531150D01*
X11108158Y-12531150D02*
X11136729Y-12531150D01*
X11136729Y-12531150D02*
X11155777Y-12540674D01*
X11155777Y-12540674D02*
X11165301Y-12559722D01*
X11165301Y-12559722D02*
X11165301Y-12664484D01*
X11165301Y-12559722D02*
X11174825Y-12540674D01*
X11174825Y-12540674D02*
X11193872Y-12531150D01*
X11193872Y-12531150D02*
X11222443Y-12531150D01*
X11222443Y-12531150D02*
X11241491Y-12540674D01*
X11241491Y-12540674D02*
X11251015Y-12559722D01*
X11251015Y-12559722D02*
X11251015Y-12664484D01*
X11641491Y-12454960D02*
X11470063Y-12712103D01*
X11898634Y-12464484D02*
X11917682Y-12464484D01*
X11917682Y-12464484D02*
X11936729Y-12474008D01*
X11936729Y-12474008D02*
X11946253Y-12483531D01*
X11946253Y-12483531D02*
X11955777Y-12502579D01*
X11955777Y-12502579D02*
X11965301Y-12540674D01*
X11965301Y-12540674D02*
X11965301Y-12588293D01*
X11965301Y-12588293D02*
X11955777Y-12626388D01*
X11955777Y-12626388D02*
X11946253Y-12645436D01*
X11946253Y-12645436D02*
X11936729Y-12654960D01*
X11936729Y-12654960D02*
X11917682Y-12664484D01*
X11917682Y-12664484D02*
X11898634Y-12664484D01*
X11898634Y-12664484D02*
X11879586Y-12654960D01*
X11879586Y-12654960D02*
X11870063Y-12645436D01*
X11870063Y-12645436D02*
X11860539Y-12626388D01*
X11860539Y-12626388D02*
X11851015Y-12588293D01*
X11851015Y-12588293D02*
X11851015Y-12540674D01*
X11851015Y-12540674D02*
X11860539Y-12502579D01*
X11860539Y-12502579D02*
X11870063Y-12483531D01*
X11870063Y-12483531D02*
X11879586Y-12474008D01*
X11879586Y-12474008D02*
X11898634Y-12464484D01*
X12051015Y-12645436D02*
X12060539Y-12654960D01*
X12060539Y-12654960D02*
X12051015Y-12664484D01*
X12051015Y-12664484D02*
X12041491Y-12654960D01*
X12041491Y-12654960D02*
X12051015Y-12645436D01*
X12051015Y-12645436D02*
X12051015Y-12664484D01*
X12184348Y-12464484D02*
X12203396Y-12464484D01*
X12203396Y-12464484D02*
X12222444Y-12474008D01*
X12222444Y-12474008D02*
X12231967Y-12483531D01*
X12231967Y-12483531D02*
X12241491Y-12502579D01*
X12241491Y-12502579D02*
X12251015Y-12540674D01*
X12251015Y-12540674D02*
X12251015Y-12588293D01*
X12251015Y-12588293D02*
X12241491Y-12626388D01*
X12241491Y-12626388D02*
X12231967Y-12645436D01*
X12231967Y-12645436D02*
X12222444Y-12654960D01*
X12222444Y-12654960D02*
X12203396Y-12664484D01*
X12203396Y-12664484D02*
X12184348Y-12664484D01*
X12184348Y-12664484D02*
X12165301Y-12654960D01*
X12165301Y-12654960D02*
X12155777Y-12645436D01*
X12155777Y-12645436D02*
X12146253Y-12626388D01*
X12146253Y-12626388D02*
X12136729Y-12588293D01*
X12136729Y-12588293D02*
X12136729Y-12540674D01*
X12136729Y-12540674D02*
X12146253Y-12502579D01*
X12146253Y-12502579D02*
X12155777Y-12483531D01*
X12155777Y-12483531D02*
X12165301Y-12474008D01*
X12165301Y-12474008D02*
X12184348Y-12464484D01*
X12317682Y-12464484D02*
X12441491Y-12464484D01*
X12441491Y-12464484D02*
X12374825Y-12540674D01*
X12374825Y-12540674D02*
X12403396Y-12540674D01*
X12403396Y-12540674D02*
X12422444Y-12550198D01*
X12422444Y-12550198D02*
X12431967Y-12559722D01*
X12431967Y-12559722D02*
X12441491Y-12578769D01*
X12441491Y-12578769D02*
X12441491Y-12626388D01*
X12441491Y-12626388D02*
X12431967Y-12645436D01*
X12431967Y-12645436D02*
X12422444Y-12654960D01*
X12422444Y-12654960D02*
X12403396Y-12664484D01*
X12403396Y-12664484D02*
X12346253Y-12664484D01*
X12346253Y-12664484D02*
X12327206Y-12654960D01*
X12327206Y-12654960D02*
X12317682Y-12645436D01*
X12536729Y-12664484D02*
X12574825Y-12664484D01*
X12574825Y-12664484D02*
X12593872Y-12654960D01*
X12593872Y-12654960D02*
X12603396Y-12645436D01*
X12603396Y-12645436D02*
X12622444Y-12616865D01*
X12622444Y-12616865D02*
X12631967Y-12578769D01*
X12631967Y-12578769D02*
X12631967Y-12502579D01*
X12631967Y-12502579D02*
X12622444Y-12483531D01*
X12622444Y-12483531D02*
X12612920Y-12474008D01*
X12612920Y-12474008D02*
X12593872Y-12464484D01*
X12593872Y-12464484D02*
X12555777Y-12464484D01*
X12555777Y-12464484D02*
X12536729Y-12474008D01*
X12536729Y-12474008D02*
X12527206Y-12483531D01*
X12527206Y-12483531D02*
X12517682Y-12502579D01*
X12517682Y-12502579D02*
X12517682Y-12550198D01*
X12517682Y-12550198D02*
X12527206Y-12569246D01*
X12527206Y-12569246D02*
X12536729Y-12578769D01*
X12536729Y-12578769D02*
X12555777Y-12588293D01*
X12555777Y-12588293D02*
X12593872Y-12588293D01*
X12593872Y-12588293D02*
X12612920Y-12578769D01*
X12612920Y-12578769D02*
X12622444Y-12569246D01*
X12622444Y-12569246D02*
X12631967Y-12550198D01*
X12803396Y-12531150D02*
X12803396Y-12664484D01*
X12755777Y-12454960D02*
X12708158Y-12597817D01*
X12708158Y-12597817D02*
X12831967Y-12597817D01*
X12898634Y-12464484D02*
X12898634Y-12502579D01*
X12974825Y-12464484D02*
X12974825Y-12502579D01*
X13270063Y-12740674D02*
X13260539Y-12731150D01*
X13260539Y-12731150D02*
X13241491Y-12702579D01*
X13241491Y-12702579D02*
X13231968Y-12683531D01*
X13231968Y-12683531D02*
X13222444Y-12654960D01*
X13222444Y-12654960D02*
X13212920Y-12607341D01*
X13212920Y-12607341D02*
X13212920Y-12569246D01*
X13212920Y-12569246D02*
X13222444Y-12521627D01*
X13222444Y-12521627D02*
X13231968Y-12493055D01*
X13231968Y-12493055D02*
X13241491Y-12474008D01*
X13241491Y-12474008D02*
X13260539Y-12445436D01*
X13260539Y-12445436D02*
X13270063Y-12435912D01*
X13374825Y-12550198D02*
X13355777Y-12540674D01*
X13355777Y-12540674D02*
X13346253Y-12531150D01*
X13346253Y-12531150D02*
X13336729Y-12512103D01*
X13336729Y-12512103D02*
X13336729Y-12502579D01*
X13336729Y-12502579D02*
X13346253Y-12483531D01*
X13346253Y-12483531D02*
X13355777Y-12474008D01*
X13355777Y-12474008D02*
X13374825Y-12464484D01*
X13374825Y-12464484D02*
X13412920Y-12464484D01*
X13412920Y-12464484D02*
X13431968Y-12474008D01*
X13431968Y-12474008D02*
X13441491Y-12483531D01*
X13441491Y-12483531D02*
X13451015Y-12502579D01*
X13451015Y-12502579D02*
X13451015Y-12512103D01*
X13451015Y-12512103D02*
X13441491Y-12531150D01*
X13441491Y-12531150D02*
X13431968Y-12540674D01*
X13431968Y-12540674D02*
X13412920Y-12550198D01*
X13412920Y-12550198D02*
X13374825Y-12550198D01*
X13374825Y-12550198D02*
X13355777Y-12559722D01*
X13355777Y-12559722D02*
X13346253Y-12569246D01*
X13346253Y-12569246D02*
X13336729Y-12588293D01*
X13336729Y-12588293D02*
X13336729Y-12626388D01*
X13336729Y-12626388D02*
X13346253Y-12645436D01*
X13346253Y-12645436D02*
X13355777Y-12654960D01*
X13355777Y-12654960D02*
X13374825Y-12664484D01*
X13374825Y-12664484D02*
X13412920Y-12664484D01*
X13412920Y-12664484D02*
X13431968Y-12654960D01*
X13431968Y-12654960D02*
X13441491Y-12645436D01*
X13441491Y-12645436D02*
X13451015Y-12626388D01*
X13451015Y-12626388D02*
X13451015Y-12588293D01*
X13451015Y-12588293D02*
X13441491Y-12569246D01*
X13441491Y-12569246D02*
X13431968Y-12559722D01*
X13431968Y-12559722D02*
X13412920Y-12550198D01*
X13689110Y-12664484D02*
X13689110Y-12464484D01*
X13774825Y-12664484D02*
X13774825Y-12559722D01*
X13774825Y-12559722D02*
X13765301Y-12540674D01*
X13765301Y-12540674D02*
X13746253Y-12531150D01*
X13746253Y-12531150D02*
X13717682Y-12531150D01*
X13717682Y-12531150D02*
X13698634Y-12540674D01*
X13698634Y-12540674D02*
X13689110Y-12550198D01*
X13898634Y-12664484D02*
X13879587Y-12654960D01*
X13879587Y-12654960D02*
X13870063Y-12645436D01*
X13870063Y-12645436D02*
X13860539Y-12626388D01*
X13860539Y-12626388D02*
X13860539Y-12569246D01*
X13860539Y-12569246D02*
X13870063Y-12550198D01*
X13870063Y-12550198D02*
X13879587Y-12540674D01*
X13879587Y-12540674D02*
X13898634Y-12531150D01*
X13898634Y-12531150D02*
X13927206Y-12531150D01*
X13927206Y-12531150D02*
X13946253Y-12540674D01*
X13946253Y-12540674D02*
X13955777Y-12550198D01*
X13955777Y-12550198D02*
X13965301Y-12569246D01*
X13965301Y-12569246D02*
X13965301Y-12626388D01*
X13965301Y-12626388D02*
X13955777Y-12645436D01*
X13955777Y-12645436D02*
X13946253Y-12654960D01*
X13946253Y-12654960D02*
X13927206Y-12664484D01*
X13927206Y-12664484D02*
X13898634Y-12664484D01*
X14079587Y-12664484D02*
X14060539Y-12654960D01*
X14060539Y-12654960D02*
X14051015Y-12635912D01*
X14051015Y-12635912D02*
X14051015Y-12464484D01*
X14231968Y-12654960D02*
X14212920Y-12664484D01*
X14212920Y-12664484D02*
X14174825Y-12664484D01*
X14174825Y-12664484D02*
X14155777Y-12654960D01*
X14155777Y-12654960D02*
X14146253Y-12635912D01*
X14146253Y-12635912D02*
X14146253Y-12559722D01*
X14146253Y-12559722D02*
X14155777Y-12540674D01*
X14155777Y-12540674D02*
X14174825Y-12531150D01*
X14174825Y-12531150D02*
X14212920Y-12531150D01*
X14212920Y-12531150D02*
X14231968Y-12540674D01*
X14231968Y-12540674D02*
X14241491Y-12559722D01*
X14241491Y-12559722D02*
X14241491Y-12578769D01*
X14241491Y-12578769D02*
X14146253Y-12597817D01*
X14317682Y-12654960D02*
X14336730Y-12664484D01*
X14336730Y-12664484D02*
X14374825Y-12664484D01*
X14374825Y-12664484D02*
X14393872Y-12654960D01*
X14393872Y-12654960D02*
X14403396Y-12635912D01*
X14403396Y-12635912D02*
X14403396Y-12626388D01*
X14403396Y-12626388D02*
X14393872Y-12607341D01*
X14393872Y-12607341D02*
X14374825Y-12597817D01*
X14374825Y-12597817D02*
X14346253Y-12597817D01*
X14346253Y-12597817D02*
X14327206Y-12588293D01*
X14327206Y-12588293D02*
X14317682Y-12569246D01*
X14317682Y-12569246D02*
X14317682Y-12559722D01*
X14317682Y-12559722D02*
X14327206Y-12540674D01*
X14327206Y-12540674D02*
X14346253Y-12531150D01*
X14346253Y-12531150D02*
X14374825Y-12531150D01*
X14374825Y-12531150D02*
X14393872Y-12540674D01*
X14470063Y-12740674D02*
X14479587Y-12731150D01*
X14479587Y-12731150D02*
X14498634Y-12702579D01*
X14498634Y-12702579D02*
X14508158Y-12683531D01*
X14508158Y-12683531D02*
X14517682Y-12654960D01*
X14517682Y-12654960D02*
X14527206Y-12607341D01*
X14527206Y-12607341D02*
X14527206Y-12569246D01*
X14527206Y-12569246D02*
X14517682Y-12521627D01*
X14517682Y-12521627D02*
X14508158Y-12493055D01*
X14508158Y-12493055D02*
X14498634Y-12474008D01*
X14498634Y-12474008D02*
X14479587Y-12445436D01*
X14479587Y-12445436D02*
X14470063Y-12435912D01*
M02*
