G04 #@! TF.GenerationSoftware,KiCad,Pcbnew,7.0.9-1.fc39*
G04 #@! TF.CreationDate,2023-11-14T16:16:57+02:00*
G04 #@! TF.ProjectId,CAN_transceiver_module,43414e5f-7472-4616-9e73-636569766572,v1.0*
G04 #@! TF.SameCoordinates,Original*
G04 #@! TF.FileFunction,Legend,Top*
G04 #@! TF.FilePolarity,Positive*
%FSLAX46Y46*%
G04 Gerber Fmt 4.6, Leading zero omitted, Abs format (unit mm)*
G04 Created by KiCad (PCBNEW 7.0.9-1.fc39) date 2023-11-14 16:16:57*
%MOMM*%
%LPD*%
G01*
G04 APERTURE LIST*
G04 Aperture macros list*
%AMRoundRect*
0 Rectangle with rounded corners*
0 $1 Rounding radius*
0 $2 $3 $4 $5 $6 $7 $8 $9 X,Y pos of 4 corners*
0 Add a 4 corners polygon primitive as box body*
4,1,4,$2,$3,$4,$5,$6,$7,$8,$9,$2,$3,0*
0 Add four circle primitives for the rounded corners*
1,1,$1+$1,$2,$3*
1,1,$1+$1,$4,$5*
1,1,$1+$1,$6,$7*
1,1,$1+$1,$8,$9*
0 Add four rect primitives between the rounded corners*
20,1,$1+$1,$2,$3,$4,$5,0*
20,1,$1+$1,$4,$5,$6,$7,0*
20,1,$1+$1,$6,$7,$8,$9,0*
20,1,$1+$1,$8,$9,$2,$3,0*%
G04 Aperture macros list end*
%ADD10C,0.150000*%
%ADD11C,0.120000*%
%ADD12R,1.700000X1.700000*%
%ADD13O,1.700000X1.700000*%
%ADD14RoundRect,0.250000X-0.625000X0.350000X-0.625000X-0.350000X0.625000X-0.350000X0.625000X0.350000X0*%
%ADD15O,1.750000X1.200000*%
%ADD16RoundRect,0.250000X-0.337500X-0.475000X0.337500X-0.475000X0.337500X0.475000X-0.337500X0.475000X0*%
%ADD17RoundRect,0.150000X0.587500X0.150000X-0.587500X0.150000X-0.587500X-0.150000X0.587500X-0.150000X0*%
%ADD18RoundRect,0.250000X-0.475000X0.337500X-0.475000X-0.337500X0.475000X-0.337500X0.475000X0.337500X0*%
%ADD19RoundRect,0.150000X-0.825000X-0.150000X0.825000X-0.150000X0.825000X0.150000X-0.825000X0.150000X0*%
%ADD20RoundRect,0.250000X0.475000X-0.337500X0.475000X0.337500X-0.475000X0.337500X-0.475000X-0.337500X0*%
%ADD21RoundRect,0.250000X0.450000X-0.350000X0.450000X0.350000X-0.450000X0.350000X-0.450000X-0.350000X0*%
%ADD22RoundRect,0.250000X-0.450000X0.350000X-0.450000X-0.350000X0.450000X-0.350000X0.450000X0.350000X0*%
G04 APERTURE END LIST*
D10*
X143061905Y-104154819D02*
X143061905Y-103154819D01*
X143061905Y-103154819D02*
X143300000Y-103154819D01*
X143300000Y-103154819D02*
X143442857Y-103202438D01*
X143442857Y-103202438D02*
X143538095Y-103297676D01*
X143538095Y-103297676D02*
X143585714Y-103392914D01*
X143585714Y-103392914D02*
X143633333Y-103583390D01*
X143633333Y-103583390D02*
X143633333Y-103726247D01*
X143633333Y-103726247D02*
X143585714Y-103916723D01*
X143585714Y-103916723D02*
X143538095Y-104011961D01*
X143538095Y-104011961D02*
X143442857Y-104107200D01*
X143442857Y-104107200D02*
X143300000Y-104154819D01*
X143300000Y-104154819D02*
X143061905Y-104154819D01*
X144585714Y-104154819D02*
X144014286Y-104154819D01*
X144300000Y-104154819D02*
X144300000Y-103154819D01*
X144300000Y-103154819D02*
X144204762Y-103297676D01*
X144204762Y-103297676D02*
X144109524Y-103392914D01*
X144109524Y-103392914D02*
X144014286Y-103440533D01*
X97809524Y-97754819D02*
X98380952Y-97754819D01*
X98095238Y-98754819D02*
X98095238Y-97754819D01*
X98619048Y-98754819D02*
X99142857Y-98088152D01*
X98619048Y-98088152D02*
X99142857Y-98754819D01*
X98661904Y-100402438D02*
X98566666Y-100354819D01*
X98566666Y-100354819D02*
X98423809Y-100354819D01*
X98423809Y-100354819D02*
X98280952Y-100402438D01*
X98280952Y-100402438D02*
X98185714Y-100497676D01*
X98185714Y-100497676D02*
X98138095Y-100592914D01*
X98138095Y-100592914D02*
X98090476Y-100783390D01*
X98090476Y-100783390D02*
X98090476Y-100926247D01*
X98090476Y-100926247D02*
X98138095Y-101116723D01*
X98138095Y-101116723D02*
X98185714Y-101211961D01*
X98185714Y-101211961D02*
X98280952Y-101307200D01*
X98280952Y-101307200D02*
X98423809Y-101354819D01*
X98423809Y-101354819D02*
X98519047Y-101354819D01*
X98519047Y-101354819D02*
X98661904Y-101307200D01*
X98661904Y-101307200D02*
X98709523Y-101259580D01*
X98709523Y-101259580D02*
X98709523Y-100926247D01*
X98709523Y-100926247D02*
X98519047Y-100926247D01*
X97452381Y-102954819D02*
X98071428Y-102954819D01*
X98071428Y-102954819D02*
X97738095Y-103335771D01*
X97738095Y-103335771D02*
X97880952Y-103335771D01*
X97880952Y-103335771D02*
X97976190Y-103383390D01*
X97976190Y-103383390D02*
X98023809Y-103431009D01*
X98023809Y-103431009D02*
X98071428Y-103526247D01*
X98071428Y-103526247D02*
X98071428Y-103764342D01*
X98071428Y-103764342D02*
X98023809Y-103859580D01*
X98023809Y-103859580D02*
X97976190Y-103907200D01*
X97976190Y-103907200D02*
X97880952Y-103954819D01*
X97880952Y-103954819D02*
X97595238Y-103954819D01*
X97595238Y-103954819D02*
X97500000Y-103907200D01*
X97500000Y-103907200D02*
X97452381Y-103859580D01*
X98500000Y-103859580D02*
X98547619Y-103907200D01*
X98547619Y-103907200D02*
X98500000Y-103954819D01*
X98500000Y-103954819D02*
X98452381Y-103907200D01*
X98452381Y-103907200D02*
X98500000Y-103859580D01*
X98500000Y-103859580D02*
X98500000Y-103954819D01*
X98880952Y-102954819D02*
X99499999Y-102954819D01*
X99499999Y-102954819D02*
X99166666Y-103335771D01*
X99166666Y-103335771D02*
X99309523Y-103335771D01*
X99309523Y-103335771D02*
X99404761Y-103383390D01*
X99404761Y-103383390D02*
X99452380Y-103431009D01*
X99452380Y-103431009D02*
X99499999Y-103526247D01*
X99499999Y-103526247D02*
X99499999Y-103764342D01*
X99499999Y-103764342D02*
X99452380Y-103859580D01*
X99452380Y-103859580D02*
X99404761Y-103907200D01*
X99404761Y-103907200D02*
X99309523Y-103954819D01*
X99309523Y-103954819D02*
X99023809Y-103954819D01*
X99023809Y-103954819D02*
X98928571Y-103907200D01*
X98928571Y-103907200D02*
X98880952Y-103859580D01*
X129959819Y-103233333D02*
X130674104Y-103233333D01*
X130674104Y-103233333D02*
X130816961Y-103280952D01*
X130816961Y-103280952D02*
X130912200Y-103376190D01*
X130912200Y-103376190D02*
X130959819Y-103519047D01*
X130959819Y-103519047D02*
X130959819Y-103614285D01*
X129959819Y-102280952D02*
X129959819Y-102757142D01*
X129959819Y-102757142D02*
X130436009Y-102804761D01*
X130436009Y-102804761D02*
X130388390Y-102757142D01*
X130388390Y-102757142D02*
X130340771Y-102661904D01*
X130340771Y-102661904D02*
X130340771Y-102423809D01*
X130340771Y-102423809D02*
X130388390Y-102328571D01*
X130388390Y-102328571D02*
X130436009Y-102280952D01*
X130436009Y-102280952D02*
X130531247Y-102233333D01*
X130531247Y-102233333D02*
X130769342Y-102233333D01*
X130769342Y-102233333D02*
X130864580Y-102280952D01*
X130864580Y-102280952D02*
X130912200Y-102328571D01*
X130912200Y-102328571D02*
X130959819Y-102423809D01*
X130959819Y-102423809D02*
X130959819Y-102661904D01*
X130959819Y-102661904D02*
X130912200Y-102757142D01*
X130912200Y-102757142D02*
X130864580Y-102804761D01*
X122749819Y-97433333D02*
X123464104Y-97433333D01*
X123464104Y-97433333D02*
X123606961Y-97480952D01*
X123606961Y-97480952D02*
X123702200Y-97576190D01*
X123702200Y-97576190D02*
X123749819Y-97719047D01*
X123749819Y-97719047D02*
X123749819Y-97814285D01*
X123083152Y-96528571D02*
X123749819Y-96528571D01*
X122702200Y-96766666D02*
X123416485Y-97004761D01*
X123416485Y-97004761D02*
X123416485Y-96385714D01*
X158604819Y-95838095D02*
X158604819Y-96314285D01*
X158604819Y-96314285D02*
X157604819Y-96314285D01*
X157652438Y-93457142D02*
X157604819Y-93552380D01*
X157604819Y-93552380D02*
X157604819Y-93695237D01*
X157604819Y-93695237D02*
X157652438Y-93838094D01*
X157652438Y-93838094D02*
X157747676Y-93933332D01*
X157747676Y-93933332D02*
X157842914Y-93980951D01*
X157842914Y-93980951D02*
X158033390Y-94028570D01*
X158033390Y-94028570D02*
X158176247Y-94028570D01*
X158176247Y-94028570D02*
X158366723Y-93980951D01*
X158366723Y-93980951D02*
X158461961Y-93933332D01*
X158461961Y-93933332D02*
X158557200Y-93838094D01*
X158557200Y-93838094D02*
X158604819Y-93695237D01*
X158604819Y-93695237D02*
X158604819Y-93599999D01*
X158604819Y-93599999D02*
X158557200Y-93457142D01*
X158557200Y-93457142D02*
X158509580Y-93409523D01*
X158509580Y-93409523D02*
X158176247Y-93409523D01*
X158176247Y-93409523D02*
X158176247Y-93599999D01*
X158604819Y-91457141D02*
X157604819Y-91457141D01*
X158081009Y-91457141D02*
X158081009Y-90885713D01*
X158604819Y-90885713D02*
X157604819Y-90885713D01*
X135633333Y-98679580D02*
X135585714Y-98727200D01*
X135585714Y-98727200D02*
X135442857Y-98774819D01*
X135442857Y-98774819D02*
X135347619Y-98774819D01*
X135347619Y-98774819D02*
X135204762Y-98727200D01*
X135204762Y-98727200D02*
X135109524Y-98631961D01*
X135109524Y-98631961D02*
X135061905Y-98536723D01*
X135061905Y-98536723D02*
X135014286Y-98346247D01*
X135014286Y-98346247D02*
X135014286Y-98203390D01*
X135014286Y-98203390D02*
X135061905Y-98012914D01*
X135061905Y-98012914D02*
X135109524Y-97917676D01*
X135109524Y-97917676D02*
X135204762Y-97822438D01*
X135204762Y-97822438D02*
X135347619Y-97774819D01*
X135347619Y-97774819D02*
X135442857Y-97774819D01*
X135442857Y-97774819D02*
X135585714Y-97822438D01*
X135585714Y-97822438D02*
X135633333Y-97870057D01*
X136014286Y-97870057D02*
X136061905Y-97822438D01*
X136061905Y-97822438D02*
X136157143Y-97774819D01*
X136157143Y-97774819D02*
X136395238Y-97774819D01*
X136395238Y-97774819D02*
X136490476Y-97822438D01*
X136490476Y-97822438D02*
X136538095Y-97870057D01*
X136538095Y-97870057D02*
X136585714Y-97965295D01*
X136585714Y-97965295D02*
X136585714Y-98060533D01*
X136585714Y-98060533D02*
X136538095Y-98203390D01*
X136538095Y-98203390D02*
X135966667Y-98774819D01*
X135966667Y-98774819D02*
X136585714Y-98774819D01*
X105533333Y-105959580D02*
X105485714Y-106007200D01*
X105485714Y-106007200D02*
X105342857Y-106054819D01*
X105342857Y-106054819D02*
X105247619Y-106054819D01*
X105247619Y-106054819D02*
X105104762Y-106007200D01*
X105104762Y-106007200D02*
X105009524Y-105911961D01*
X105009524Y-105911961D02*
X104961905Y-105816723D01*
X104961905Y-105816723D02*
X104914286Y-105626247D01*
X104914286Y-105626247D02*
X104914286Y-105483390D01*
X104914286Y-105483390D02*
X104961905Y-105292914D01*
X104961905Y-105292914D02*
X105009524Y-105197676D01*
X105009524Y-105197676D02*
X105104762Y-105102438D01*
X105104762Y-105102438D02*
X105247619Y-105054819D01*
X105247619Y-105054819D02*
X105342857Y-105054819D01*
X105342857Y-105054819D02*
X105485714Y-105102438D01*
X105485714Y-105102438D02*
X105533333Y-105150057D01*
X106485714Y-106054819D02*
X105914286Y-106054819D01*
X106200000Y-106054819D02*
X106200000Y-105054819D01*
X106200000Y-105054819D02*
X106104762Y-105197676D01*
X106104762Y-105197676D02*
X106009524Y-105292914D01*
X106009524Y-105292914D02*
X105914286Y-105340533D01*
X107357143Y-105007200D02*
X107500000Y-105054819D01*
X107500000Y-105054819D02*
X107738095Y-105054819D01*
X107738095Y-105054819D02*
X107833333Y-105007200D01*
X107833333Y-105007200D02*
X107880952Y-104959580D01*
X107880952Y-104959580D02*
X107928571Y-104864342D01*
X107928571Y-104864342D02*
X107928571Y-104769104D01*
X107928571Y-104769104D02*
X107880952Y-104673866D01*
X107880952Y-104673866D02*
X107833333Y-104626247D01*
X107833333Y-104626247D02*
X107738095Y-104578628D01*
X107738095Y-104578628D02*
X107547619Y-104531009D01*
X107547619Y-104531009D02*
X107452381Y-104483390D01*
X107452381Y-104483390D02*
X107404762Y-104435771D01*
X107404762Y-104435771D02*
X107357143Y-104340533D01*
X107357143Y-104340533D02*
X107357143Y-104245295D01*
X107357143Y-104245295D02*
X107404762Y-104150057D01*
X107404762Y-104150057D02*
X107452381Y-104102438D01*
X107452381Y-104102438D02*
X107547619Y-104054819D01*
X107547619Y-104054819D02*
X107785714Y-104054819D01*
X107785714Y-104054819D02*
X107928571Y-104102438D01*
X108357143Y-105054819D02*
X108357143Y-104054819D01*
X108357143Y-104054819D02*
X108928571Y-105054819D01*
X108928571Y-105054819D02*
X108928571Y-104054819D01*
X109833333Y-104054819D02*
X109642857Y-104054819D01*
X109642857Y-104054819D02*
X109547619Y-104102438D01*
X109547619Y-104102438D02*
X109500000Y-104150057D01*
X109500000Y-104150057D02*
X109404762Y-104292914D01*
X109404762Y-104292914D02*
X109357143Y-104483390D01*
X109357143Y-104483390D02*
X109357143Y-104864342D01*
X109357143Y-104864342D02*
X109404762Y-104959580D01*
X109404762Y-104959580D02*
X109452381Y-105007200D01*
X109452381Y-105007200D02*
X109547619Y-105054819D01*
X109547619Y-105054819D02*
X109738095Y-105054819D01*
X109738095Y-105054819D02*
X109833333Y-105007200D01*
X109833333Y-105007200D02*
X109880952Y-104959580D01*
X109880952Y-104959580D02*
X109928571Y-104864342D01*
X109928571Y-104864342D02*
X109928571Y-104626247D01*
X109928571Y-104626247D02*
X109880952Y-104531009D01*
X109880952Y-104531009D02*
X109833333Y-104483390D01*
X109833333Y-104483390D02*
X109738095Y-104435771D01*
X109738095Y-104435771D02*
X109547619Y-104435771D01*
X109547619Y-104435771D02*
X109452381Y-104483390D01*
X109452381Y-104483390D02*
X109404762Y-104531009D01*
X109404762Y-104531009D02*
X109357143Y-104626247D01*
X110833333Y-104054819D02*
X110357143Y-104054819D01*
X110357143Y-104054819D02*
X110309524Y-104531009D01*
X110309524Y-104531009D02*
X110357143Y-104483390D01*
X110357143Y-104483390D02*
X110452381Y-104435771D01*
X110452381Y-104435771D02*
X110690476Y-104435771D01*
X110690476Y-104435771D02*
X110785714Y-104483390D01*
X110785714Y-104483390D02*
X110833333Y-104531009D01*
X110833333Y-104531009D02*
X110880952Y-104626247D01*
X110880952Y-104626247D02*
X110880952Y-104864342D01*
X110880952Y-104864342D02*
X110833333Y-104959580D01*
X110833333Y-104959580D02*
X110785714Y-105007200D01*
X110785714Y-105007200D02*
X110690476Y-105054819D01*
X110690476Y-105054819D02*
X110452381Y-105054819D01*
X110452381Y-105054819D02*
X110357143Y-105007200D01*
X110357143Y-105007200D02*
X110309524Y-104959580D01*
X111309524Y-105054819D02*
X111309524Y-104054819D01*
X111309524Y-104531009D02*
X111880952Y-104531009D01*
X111880952Y-105054819D02*
X111880952Y-104054819D01*
X112214286Y-104054819D02*
X112547619Y-105054819D01*
X112547619Y-105054819D02*
X112880952Y-104054819D01*
X113214286Y-105054819D02*
X113214286Y-104054819D01*
X113214286Y-104054819D02*
X113452381Y-104054819D01*
X113452381Y-104054819D02*
X113595238Y-104102438D01*
X113595238Y-104102438D02*
X113690476Y-104197676D01*
X113690476Y-104197676D02*
X113738095Y-104292914D01*
X113738095Y-104292914D02*
X113785714Y-104483390D01*
X113785714Y-104483390D02*
X113785714Y-104626247D01*
X113785714Y-104626247D02*
X113738095Y-104816723D01*
X113738095Y-104816723D02*
X113690476Y-104911961D01*
X113690476Y-104911961D02*
X113595238Y-105007200D01*
X113595238Y-105007200D02*
X113452381Y-105054819D01*
X113452381Y-105054819D02*
X113214286Y-105054819D01*
X114166667Y-104150057D02*
X114214286Y-104102438D01*
X114214286Y-104102438D02*
X114309524Y-104054819D01*
X114309524Y-104054819D02*
X114547619Y-104054819D01*
X114547619Y-104054819D02*
X114642857Y-104102438D01*
X114642857Y-104102438D02*
X114690476Y-104150057D01*
X114690476Y-104150057D02*
X114738095Y-104245295D01*
X114738095Y-104245295D02*
X114738095Y-104340533D01*
X114738095Y-104340533D02*
X114690476Y-104483390D01*
X114690476Y-104483390D02*
X114119048Y-105054819D01*
X114119048Y-105054819D02*
X114738095Y-105054819D01*
X115071429Y-104054819D02*
X115690476Y-104054819D01*
X115690476Y-104054819D02*
X115357143Y-104435771D01*
X115357143Y-104435771D02*
X115500000Y-104435771D01*
X115500000Y-104435771D02*
X115595238Y-104483390D01*
X115595238Y-104483390D02*
X115642857Y-104531009D01*
X115642857Y-104531009D02*
X115690476Y-104626247D01*
X115690476Y-104626247D02*
X115690476Y-104864342D01*
X115690476Y-104864342D02*
X115642857Y-104959580D01*
X115642857Y-104959580D02*
X115595238Y-105007200D01*
X115595238Y-105007200D02*
X115500000Y-105054819D01*
X115500000Y-105054819D02*
X115214286Y-105054819D01*
X115214286Y-105054819D02*
X115119048Y-105007200D01*
X115119048Y-105007200D02*
X115071429Y-104959580D01*
X116309524Y-104054819D02*
X116404762Y-104054819D01*
X116404762Y-104054819D02*
X116500000Y-104102438D01*
X116500000Y-104102438D02*
X116547619Y-104150057D01*
X116547619Y-104150057D02*
X116595238Y-104245295D01*
X116595238Y-104245295D02*
X116642857Y-104435771D01*
X116642857Y-104435771D02*
X116642857Y-104673866D01*
X116642857Y-104673866D02*
X116595238Y-104864342D01*
X116595238Y-104864342D02*
X116547619Y-104959580D01*
X116547619Y-104959580D02*
X116500000Y-105007200D01*
X116500000Y-105007200D02*
X116404762Y-105054819D01*
X116404762Y-105054819D02*
X116309524Y-105054819D01*
X116309524Y-105054819D02*
X116214286Y-105007200D01*
X116214286Y-105007200D02*
X116166667Y-104959580D01*
X116166667Y-104959580D02*
X116119048Y-104864342D01*
X116119048Y-104864342D02*
X116071429Y-104673866D01*
X116071429Y-104673866D02*
X116071429Y-104435771D01*
X116071429Y-104435771D02*
X116119048Y-104245295D01*
X116119048Y-104245295D02*
X116166667Y-104150057D01*
X116166667Y-104150057D02*
X116214286Y-104102438D01*
X116214286Y-104102438D02*
X116309524Y-104054819D01*
X146933333Y-108759580D02*
X146885714Y-108807200D01*
X146885714Y-108807200D02*
X146742857Y-108854819D01*
X146742857Y-108854819D02*
X146647619Y-108854819D01*
X146647619Y-108854819D02*
X146504762Y-108807200D01*
X146504762Y-108807200D02*
X146409524Y-108711961D01*
X146409524Y-108711961D02*
X146361905Y-108616723D01*
X146361905Y-108616723D02*
X146314286Y-108426247D01*
X146314286Y-108426247D02*
X146314286Y-108283390D01*
X146314286Y-108283390D02*
X146361905Y-108092914D01*
X146361905Y-108092914D02*
X146409524Y-107997676D01*
X146409524Y-107997676D02*
X146504762Y-107902438D01*
X146504762Y-107902438D02*
X146647619Y-107854819D01*
X146647619Y-107854819D02*
X146742857Y-107854819D01*
X146742857Y-107854819D02*
X146885714Y-107902438D01*
X146885714Y-107902438D02*
X146933333Y-107950057D01*
X147790476Y-108188152D02*
X147790476Y-108854819D01*
X147552381Y-107807200D02*
X147314286Y-108521485D01*
X147314286Y-108521485D02*
X147933333Y-108521485D01*
X119833333Y-107554819D02*
X119500000Y-107078628D01*
X119261905Y-107554819D02*
X119261905Y-106554819D01*
X119261905Y-106554819D02*
X119642857Y-106554819D01*
X119642857Y-106554819D02*
X119738095Y-106602438D01*
X119738095Y-106602438D02*
X119785714Y-106650057D01*
X119785714Y-106650057D02*
X119833333Y-106745295D01*
X119833333Y-106745295D02*
X119833333Y-106888152D01*
X119833333Y-106888152D02*
X119785714Y-106983390D01*
X119785714Y-106983390D02*
X119738095Y-107031009D01*
X119738095Y-107031009D02*
X119642857Y-107078628D01*
X119642857Y-107078628D02*
X119261905Y-107078628D01*
X120214286Y-106650057D02*
X120261905Y-106602438D01*
X120261905Y-106602438D02*
X120357143Y-106554819D01*
X120357143Y-106554819D02*
X120595238Y-106554819D01*
X120595238Y-106554819D02*
X120690476Y-106602438D01*
X120690476Y-106602438D02*
X120738095Y-106650057D01*
X120738095Y-106650057D02*
X120785714Y-106745295D01*
X120785714Y-106745295D02*
X120785714Y-106840533D01*
X120785714Y-106840533D02*
X120738095Y-106983390D01*
X120738095Y-106983390D02*
X120166667Y-107554819D01*
X120166667Y-107554819D02*
X120785714Y-107554819D01*
X158654819Y-108738095D02*
X158654819Y-109214285D01*
X158654819Y-109214285D02*
X157654819Y-109214285D01*
X157702438Y-106357142D02*
X157654819Y-106452380D01*
X157654819Y-106452380D02*
X157654819Y-106595237D01*
X157654819Y-106595237D02*
X157702438Y-106738094D01*
X157702438Y-106738094D02*
X157797676Y-106833332D01*
X157797676Y-106833332D02*
X157892914Y-106880951D01*
X157892914Y-106880951D02*
X158083390Y-106928570D01*
X158083390Y-106928570D02*
X158226247Y-106928570D01*
X158226247Y-106928570D02*
X158416723Y-106880951D01*
X158416723Y-106880951D02*
X158511961Y-106833332D01*
X158511961Y-106833332D02*
X158607200Y-106738094D01*
X158607200Y-106738094D02*
X158654819Y-106595237D01*
X158654819Y-106595237D02*
X158654819Y-106499999D01*
X158654819Y-106499999D02*
X158607200Y-106357142D01*
X158607200Y-106357142D02*
X158559580Y-106309523D01*
X158559580Y-106309523D02*
X158226247Y-106309523D01*
X158226247Y-106309523D02*
X158226247Y-106499999D01*
X158654819Y-104357141D02*
X157654819Y-104357141D01*
X158131009Y-104357141D02*
X158131009Y-103785713D01*
X158654819Y-103785713D02*
X157654819Y-103785713D01*
X146933333Y-92359580D02*
X146885714Y-92407200D01*
X146885714Y-92407200D02*
X146742857Y-92454819D01*
X146742857Y-92454819D02*
X146647619Y-92454819D01*
X146647619Y-92454819D02*
X146504762Y-92407200D01*
X146504762Y-92407200D02*
X146409524Y-92311961D01*
X146409524Y-92311961D02*
X146361905Y-92216723D01*
X146361905Y-92216723D02*
X146314286Y-92026247D01*
X146314286Y-92026247D02*
X146314286Y-91883390D01*
X146314286Y-91883390D02*
X146361905Y-91692914D01*
X146361905Y-91692914D02*
X146409524Y-91597676D01*
X146409524Y-91597676D02*
X146504762Y-91502438D01*
X146504762Y-91502438D02*
X146647619Y-91454819D01*
X146647619Y-91454819D02*
X146742857Y-91454819D01*
X146742857Y-91454819D02*
X146885714Y-91502438D01*
X146885714Y-91502438D02*
X146933333Y-91550057D01*
X147266667Y-91454819D02*
X147885714Y-91454819D01*
X147885714Y-91454819D02*
X147552381Y-91835771D01*
X147552381Y-91835771D02*
X147695238Y-91835771D01*
X147695238Y-91835771D02*
X147790476Y-91883390D01*
X147790476Y-91883390D02*
X147838095Y-91931009D01*
X147838095Y-91931009D02*
X147885714Y-92026247D01*
X147885714Y-92026247D02*
X147885714Y-92264342D01*
X147885714Y-92264342D02*
X147838095Y-92359580D01*
X147838095Y-92359580D02*
X147790476Y-92407200D01*
X147790476Y-92407200D02*
X147695238Y-92454819D01*
X147695238Y-92454819D02*
X147409524Y-92454819D01*
X147409524Y-92454819D02*
X147314286Y-92407200D01*
X147314286Y-92407200D02*
X147266667Y-92359580D01*
X98304761Y-96154819D02*
X97971428Y-95678628D01*
X97733333Y-96154819D02*
X97733333Y-95154819D01*
X97733333Y-95154819D02*
X98114285Y-95154819D01*
X98114285Y-95154819D02*
X98209523Y-95202438D01*
X98209523Y-95202438D02*
X98257142Y-95250057D01*
X98257142Y-95250057D02*
X98304761Y-95345295D01*
X98304761Y-95345295D02*
X98304761Y-95488152D01*
X98304761Y-95488152D02*
X98257142Y-95583390D01*
X98257142Y-95583390D02*
X98209523Y-95631009D01*
X98209523Y-95631009D02*
X98114285Y-95678628D01*
X98114285Y-95678628D02*
X97733333Y-95678628D01*
X98638095Y-96154819D02*
X99161904Y-95488152D01*
X98638095Y-95488152D02*
X99161904Y-96154819D01*
X119833333Y-93454819D02*
X119500000Y-92978628D01*
X119261905Y-93454819D02*
X119261905Y-92454819D01*
X119261905Y-92454819D02*
X119642857Y-92454819D01*
X119642857Y-92454819D02*
X119738095Y-92502438D01*
X119738095Y-92502438D02*
X119785714Y-92550057D01*
X119785714Y-92550057D02*
X119833333Y-92645295D01*
X119833333Y-92645295D02*
X119833333Y-92788152D01*
X119833333Y-92788152D02*
X119785714Y-92883390D01*
X119785714Y-92883390D02*
X119738095Y-92931009D01*
X119738095Y-92931009D02*
X119642857Y-92978628D01*
X119642857Y-92978628D02*
X119261905Y-92978628D01*
X120785714Y-93454819D02*
X120214286Y-93454819D01*
X120500000Y-93454819D02*
X120500000Y-92454819D01*
X120500000Y-92454819D02*
X120404762Y-92597676D01*
X120404762Y-92597676D02*
X120309524Y-92692914D01*
X120309524Y-92692914D02*
X120214286Y-92740533D01*
D11*
X128175000Y-101570000D02*
X129505000Y-101570000D01*
X124305000Y-101570000D02*
X124305000Y-104230000D01*
X126905000Y-101570000D02*
X124305000Y-101570000D01*
X126905000Y-101570000D02*
X126905000Y-104230000D01*
X129505000Y-101570000D02*
X129505000Y-102900000D01*
X126905000Y-104230000D02*
X124305000Y-104230000D01*
X126895000Y-95770000D02*
X129495000Y-95770000D01*
X124295000Y-98430000D02*
X124295000Y-97100000D01*
X126895000Y-98430000D02*
X126895000Y-95770000D01*
X126895000Y-98430000D02*
X129495000Y-98430000D01*
X129495000Y-98430000D02*
X129495000Y-95770000D01*
X125625000Y-98430000D02*
X124295000Y-98430000D01*
X157360000Y-89240000D02*
X156110000Y-89240000D01*
X157060000Y-89540000D02*
X152340000Y-89540000D01*
X155750000Y-89540000D02*
X155750000Y-90150000D01*
X154450000Y-89540000D02*
X154450000Y-90150000D01*
X152340000Y-89540000D02*
X152340000Y-97660000D01*
X156450000Y-90150000D02*
X152950000Y-90150000D01*
X152950000Y-90150000D02*
X152950000Y-97050000D01*
X157360000Y-90490000D02*
X157360000Y-89240000D01*
X157260000Y-91000000D02*
X157060000Y-91000000D01*
X157260000Y-91300000D02*
X157260000Y-91000000D01*
X157160000Y-91300000D02*
X157160000Y-91000000D01*
X157060000Y-91300000D02*
X157260000Y-91300000D01*
X157060000Y-92100000D02*
X156450000Y-92100000D01*
X156450000Y-92100000D02*
X156450000Y-90150000D01*
X153450000Y-92500000D02*
X153450000Y-92700000D01*
X152950000Y-92500000D02*
X153450000Y-92500000D01*
X152950000Y-92600000D02*
X153450000Y-92600000D01*
X153450000Y-92700000D02*
X152950000Y-92700000D01*
X153450000Y-94500000D02*
X153450000Y-94700000D01*
X152950000Y-94500000D02*
X153450000Y-94500000D01*
X152950000Y-94600000D02*
X153450000Y-94600000D01*
X153450000Y-94700000D02*
X152950000Y-94700000D01*
X156450000Y-95100000D02*
X157060000Y-95100000D01*
X156450000Y-97050000D02*
X156450000Y-95100000D01*
X152950000Y-97050000D02*
X156450000Y-97050000D01*
X157060000Y-97660000D02*
X157060000Y-89540000D01*
X155750000Y-97660000D02*
X155750000Y-97050000D01*
X154450000Y-97660000D02*
X154450000Y-97050000D01*
X152340000Y-97660000D02*
X157060000Y-97660000D01*
X135538748Y-100735000D02*
X136061252Y-100735000D01*
X135538748Y-99265000D02*
X136061252Y-99265000D01*
X143400000Y-101560000D02*
X145075000Y-101560000D01*
X143400000Y-101560000D02*
X142750000Y-101560000D01*
X143400000Y-98440000D02*
X144050000Y-98440000D01*
X143400000Y-98440000D02*
X142750000Y-98440000D01*
X106435000Y-102138748D02*
X106435000Y-102661252D01*
X104965000Y-102138748D02*
X104965000Y-102661252D01*
X112000000Y-97440000D02*
X108550000Y-97440000D01*
X112000000Y-97440000D02*
X113950000Y-97440000D01*
X112000000Y-102560000D02*
X110050000Y-102560000D01*
X112000000Y-102560000D02*
X113950000Y-102560000D01*
X146365000Y-105261252D02*
X146365000Y-104738748D01*
X147835000Y-105261252D02*
X147835000Y-104738748D01*
X120735000Y-104027064D02*
X120735000Y-103572936D01*
X119265000Y-104027064D02*
X119265000Y-103572936D01*
X157410000Y-102140000D02*
X156160000Y-102140000D01*
X157110000Y-102440000D02*
X152390000Y-102440000D01*
X155800000Y-102440000D02*
X155800000Y-103050000D01*
X154500000Y-102440000D02*
X154500000Y-103050000D01*
X152390000Y-102440000D02*
X152390000Y-110560000D01*
X156500000Y-103050000D02*
X153000000Y-103050000D01*
X153000000Y-103050000D02*
X153000000Y-109950000D01*
X157410000Y-103390000D02*
X157410000Y-102140000D01*
X157310000Y-103900000D02*
X157110000Y-103900000D01*
X157310000Y-104200000D02*
X157310000Y-103900000D01*
X157210000Y-104200000D02*
X157210000Y-103900000D01*
X157110000Y-104200000D02*
X157310000Y-104200000D01*
X157110000Y-105000000D02*
X156500000Y-105000000D01*
X156500000Y-105000000D02*
X156500000Y-103050000D01*
X153500000Y-105400000D02*
X153500000Y-105600000D01*
X153000000Y-105400000D02*
X153500000Y-105400000D01*
X153000000Y-105500000D02*
X153500000Y-105500000D01*
X153500000Y-105600000D02*
X153000000Y-105600000D01*
X153500000Y-107400000D02*
X153500000Y-107600000D01*
X153000000Y-107400000D02*
X153500000Y-107400000D01*
X153000000Y-107500000D02*
X153500000Y-107500000D01*
X153500000Y-107600000D02*
X153000000Y-107600000D01*
X156500000Y-108000000D02*
X157110000Y-108000000D01*
X156500000Y-109950000D02*
X156500000Y-108000000D01*
X153000000Y-109950000D02*
X156500000Y-109950000D01*
X157110000Y-110560000D02*
X157110000Y-102440000D01*
X155800000Y-110560000D02*
X155800000Y-109950000D01*
X154500000Y-110560000D02*
X154500000Y-109950000D01*
X152390000Y-110560000D02*
X157110000Y-110560000D01*
X146365000Y-95261252D02*
X146365000Y-94738748D01*
X147835000Y-95261252D02*
X147835000Y-94738748D01*
X102730000Y-104830000D02*
X101400000Y-104830000D01*
X102730000Y-103500000D02*
X102730000Y-104830000D01*
X102730000Y-102230000D02*
X102730000Y-94550000D01*
X102730000Y-102230000D02*
X100070000Y-102230000D01*
X102730000Y-94550000D02*
X100070000Y-94550000D01*
X100070000Y-102230000D02*
X100070000Y-94550000D01*
X119265000Y-95972936D02*
X119265000Y-96427064D01*
X120735000Y-95972936D02*
X120735000Y-96427064D01*
%LPC*%
D12*
X128175000Y-102900000D03*
D13*
X125635000Y-102900000D03*
X128165000Y-97100000D03*
D12*
X125625000Y-97100000D03*
D14*
X155250000Y-91600000D03*
D15*
X155250000Y-93600000D03*
X155250000Y-95600000D03*
D16*
X136837500Y-100000000D03*
X134762500Y-100000000D03*
D17*
X144337500Y-100950000D03*
X144337500Y-99050000D03*
X142462500Y-100000000D03*
D18*
X105700000Y-101362500D03*
X105700000Y-103437500D03*
D19*
X109525000Y-98095000D03*
X109525000Y-99365000D03*
X109525000Y-100635000D03*
X109525000Y-101905000D03*
X114475000Y-101905000D03*
X114475000Y-100635000D03*
X114475000Y-99365000D03*
X114475000Y-98095000D03*
D20*
X147100000Y-106037500D03*
X147100000Y-103962500D03*
D21*
X120000000Y-102800000D03*
X120000000Y-104800000D03*
D14*
X155300000Y-104500000D03*
D15*
X155300000Y-106500000D03*
X155300000Y-108500000D03*
D20*
X147100000Y-96037500D03*
X147100000Y-93962500D03*
D12*
X101400000Y-103500000D03*
D13*
X101400000Y-100960000D03*
X101400000Y-98420000D03*
X101400000Y-95880000D03*
D22*
X120000000Y-97200000D03*
X120000000Y-95200000D03*
%LPD*%
M02*
