%TF.GenerationSoftware,KiCad,Pcbnew,7.0.9-1.fc39*%
%TF.CreationDate,2023-11-14T16:17:19+02:00*%
%TF.ProjectId,CAN_transceiver_module,43414e5f-7472-4616-9e73-636569766572,v1.0*%
%TF.SameCoordinates,Original*%
%TF.FileFunction,Drillmap*%
%TF.FilePolarity,Positive*%
%FSLAX45Y45*%
G04 Gerber Fmt 4.5, Leading zero omitted, Abs format (unit mm)*
G04 Created by KiCad (PCBNEW 7.0.9-1.fc39) date 2023-11-14 16:17:19*
%MOMM*%
%LPD*%
G01*
G04 APERTURE LIST*
%ADD10C,0.100000*%
%ADD11C,0.200000*%
G04 APERTURE END LIST*
D10*
X9900000Y-8700000D02*
G75*
G03*
X9700000Y-8900000I0J-200000D01*
G01*
X16000000Y-8900000D02*
G75*
G03*
X15800000Y-8700000I-200000J0D01*
G01*
X9900000Y-8700000D02*
X15800000Y-8700000D01*
X9700000Y-11200000D02*
G75*
G03*
X9900000Y-11400000I200000J0D01*
G01*
X9700000Y-11200000D02*
X9700000Y-8900000D01*
X15800000Y-11400000D02*
G75*
G03*
X16000000Y-11200000I0J200000D01*
G01*
X16000000Y-8900000D02*
X16000000Y-11200000D01*
X15800000Y-11400000D02*
X9900000Y-11400000D01*
D11*
X9955777Y-11716484D02*
X9955777Y-11516484D01*
X9955777Y-11516484D02*
X10003396Y-11516484D01*
X10003396Y-11516484D02*
X10031967Y-11526008D01*
X10031967Y-11526008D02*
X10051015Y-11545055D01*
X10051015Y-11545055D02*
X10060539Y-11564103D01*
X10060539Y-11564103D02*
X10070063Y-11602198D01*
X10070063Y-11602198D02*
X10070063Y-11630769D01*
X10070063Y-11630769D02*
X10060539Y-11668865D01*
X10060539Y-11668865D02*
X10051015Y-11687912D01*
X10051015Y-11687912D02*
X10031967Y-11706960D01*
X10031967Y-11706960D02*
X10003396Y-11716484D01*
X10003396Y-11716484D02*
X9955777Y-11716484D01*
X10155777Y-11716484D02*
X10155777Y-11583150D01*
X10155777Y-11621246D02*
X10165301Y-11602198D01*
X10165301Y-11602198D02*
X10174824Y-11592674D01*
X10174824Y-11592674D02*
X10193872Y-11583150D01*
X10193872Y-11583150D02*
X10212920Y-11583150D01*
X10279586Y-11716484D02*
X10279586Y-11583150D01*
X10279586Y-11516484D02*
X10270063Y-11526008D01*
X10270063Y-11526008D02*
X10279586Y-11535531D01*
X10279586Y-11535531D02*
X10289110Y-11526008D01*
X10289110Y-11526008D02*
X10279586Y-11516484D01*
X10279586Y-11516484D02*
X10279586Y-11535531D01*
X10403396Y-11716484D02*
X10384348Y-11706960D01*
X10384348Y-11706960D02*
X10374824Y-11687912D01*
X10374824Y-11687912D02*
X10374824Y-11516484D01*
X10508158Y-11716484D02*
X10489110Y-11706960D01*
X10489110Y-11706960D02*
X10479586Y-11687912D01*
X10479586Y-11687912D02*
X10479586Y-11516484D01*
X10736729Y-11716484D02*
X10736729Y-11516484D01*
X10736729Y-11516484D02*
X10803396Y-11659341D01*
X10803396Y-11659341D02*
X10870063Y-11516484D01*
X10870063Y-11516484D02*
X10870063Y-11716484D01*
X11051015Y-11716484D02*
X11051015Y-11611722D01*
X11051015Y-11611722D02*
X11041491Y-11592674D01*
X11041491Y-11592674D02*
X11022444Y-11583150D01*
X11022444Y-11583150D02*
X10984348Y-11583150D01*
X10984348Y-11583150D02*
X10965301Y-11592674D01*
X11051015Y-11706960D02*
X11031967Y-11716484D01*
X11031967Y-11716484D02*
X10984348Y-11716484D01*
X10984348Y-11716484D02*
X10965301Y-11706960D01*
X10965301Y-11706960D02*
X10955777Y-11687912D01*
X10955777Y-11687912D02*
X10955777Y-11668865D01*
X10955777Y-11668865D02*
X10965301Y-11649817D01*
X10965301Y-11649817D02*
X10984348Y-11640293D01*
X10984348Y-11640293D02*
X11031967Y-11640293D01*
X11031967Y-11640293D02*
X11051015Y-11630769D01*
X11146253Y-11583150D02*
X11146253Y-11783150D01*
X11146253Y-11592674D02*
X11165301Y-11583150D01*
X11165301Y-11583150D02*
X11203396Y-11583150D01*
X11203396Y-11583150D02*
X11222443Y-11592674D01*
X11222443Y-11592674D02*
X11231967Y-11602198D01*
X11231967Y-11602198D02*
X11241491Y-11621246D01*
X11241491Y-11621246D02*
X11241491Y-11678388D01*
X11241491Y-11678388D02*
X11231967Y-11697436D01*
X11231967Y-11697436D02*
X11222443Y-11706960D01*
X11222443Y-11706960D02*
X11203396Y-11716484D01*
X11203396Y-11716484D02*
X11165301Y-11716484D01*
X11165301Y-11716484D02*
X11146253Y-11706960D01*
X11327205Y-11697436D02*
X11336729Y-11706960D01*
X11336729Y-11706960D02*
X11327205Y-11716484D01*
X11327205Y-11716484D02*
X11317682Y-11706960D01*
X11317682Y-11706960D02*
X11327205Y-11697436D01*
X11327205Y-11697436D02*
X11327205Y-11716484D01*
X11327205Y-11592674D02*
X11336729Y-11602198D01*
X11336729Y-11602198D02*
X11327205Y-11611722D01*
X11327205Y-11611722D02*
X11317682Y-11602198D01*
X11317682Y-11602198D02*
X11327205Y-11592674D01*
X11327205Y-11592674D02*
X11327205Y-11611722D01*
M02*
